<svg width="390" height="178" viewBox="0 0 390 178" fill="none" xmlns="http://www.w3.org/2000/svg">
<path d="M236.638 111.554C236.816 131.919 232.376 147.548 223.318 158.322C214.261 169.097 201.77 174.543 186.022 174.721C170.157 174.898 157.547 169.63 148.194 159.033C138.84 148.436 134.045 132.926 133.867 112.561L133.512 76.6856C133.334 56.38 137.774 40.8104 146.832 29.9176C155.89 19.084 168.381 13.5784 184.246 13.4008C200.053 13.2232 212.603 18.492 221.957 29.2072C231.31 39.8632 236.106 55.3736 236.283 75.6792L236.638 111.554ZM210.058 71.8904C209.939 59.044 207.69 49.572 203.309 43.4744C198.928 37.3768 192.653 34.2984 184.365 34.4168C176.136 34.476 169.861 37.6136 165.658 43.8296C161.454 50.0456 159.382 59.5768 159.501 72.4232L159.915 115.994C160.034 128.9 162.283 138.431 166.723 144.588C171.104 150.745 177.438 153.764 185.726 153.705C193.955 153.646 200.171 150.508 204.374 144.292C208.578 138.076 210.59 128.486 210.472 115.521L210.058 71.8904Z" fill="#057858"/>
<g opacity="0.4">
<path d="M236.638 111.554C236.816 131.919 232.376 147.548 223.318 158.322C214.261 169.097 201.77 174.543 186.022 174.721C170.157 174.898 157.547 169.63 148.194 159.033C138.84 148.436 134.045 132.926 133.867 112.561L133.512 76.6856C133.334 56.38 137.774 40.8104 146.832 29.9176C155.89 19.084 168.381 13.5784 184.246 13.4008C200.053 13.2232 212.603 18.492 221.957 29.2072C231.31 39.8632 236.106 55.3736 236.283 75.6792L236.638 111.554ZM210.058 71.8904C209.939 59.044 207.69 49.572 203.309 43.4744C198.928 37.3768 192.653 34.2984 184.365 34.4168C176.136 34.476 169.861 37.6136 165.658 43.8296C161.454 50.0456 159.382 59.5768 159.501 72.4232L159.915 115.994C160.034 128.9 162.283 138.431 166.723 144.588C171.104 150.745 177.438 153.764 185.726 153.705C193.955 153.646 200.171 150.508 204.374 144.292C208.578 138.076 210.59 128.486 210.472 115.521L210.058 71.8904Z" fill="black"/>
</g>
<path d="M251.675 111.377C251.853 131.742 247.413 147.37 238.355 158.145C229.298 168.919 216.807 174.365 201.059 174.543C185.194 174.721 172.584 169.452 163.231 158.855C153.877 148.258 149.082 132.748 148.904 112.383L148.549 76.5079C148.371 56.2023 152.811 40.6327 161.869 29.7399C170.927 18.9063 183.418 13.4007 199.283 13.2231C215.09 13.0455 227.64 18.3143 236.994 29.0295C246.347 39.6855 251.143 55.1959 251.32 75.5015L251.675 111.377ZM225.154 71.7719C225.035 58.9255 222.786 49.4535 218.405 43.3559C214.024 37.2583 207.749 34.1799 199.461 34.2983C191.232 34.3575 184.957 37.4951 180.754 43.7111C176.551 49.9271 174.479 59.4583 174.597 72.3047L175.011 115.876C175.13 128.781 177.379 138.313 181.819 144.469C186.2 150.626 192.535 153.645 200.823 153.586C209.051 153.527 215.267 150.389 219.471 144.173C223.674 137.957 225.687 128.367 225.568 115.402L225.154 71.7719Z" fill="#057858"/>
<path d="M148.667 78.6397C148.727 78.6989 145.175 80.1197 140.853 81.7181C136.531 83.3757 132.979 84.6189 132.92 84.5597C132.861 84.5005 136.413 83.0797 140.735 81.4813C145.056 79.8237 148.608 78.5805 148.667 78.6397Z" fill="#057858"/>
<path d="M149.496 92.7882C149.555 92.8474 146.003 94.2682 141.682 95.8666C137.36 97.5242 133.808 98.7674 133.749 98.7082C133.69 98.649 137.242 97.2282 141.563 95.6298C145.944 93.9722 149.496 92.729 149.496 92.7882Z" fill="#057858"/>
<path d="M150.384 106.996C150.443 107.055 146.891 108.476 142.57 110.074C138.248 111.732 134.696 112.975 134.637 112.916C134.578 112.857 138.13 111.436 142.451 109.837C146.773 108.18 150.325 106.877 150.384 106.996Z" fill="#057858"/>
<path d="M151.272 121.145C151.331 121.204 147.779 122.625 143.458 124.223C139.136 125.881 135.584 127.124 135.525 127.065C135.466 127.005 139.018 125.585 143.339 123.986C147.661 122.329 151.213 121.085 151.272 121.145Z" fill="#057858"/>
<path d="M152.101 135.294C152.101 135.294 151.923 135.412 151.568 135.59C151.213 135.768 150.68 135.945 150.029 136.241C148.726 136.774 146.95 137.425 144.997 138.195C143.043 138.964 141.208 139.616 139.906 140.03C139.254 140.267 138.722 140.444 138.366 140.563C138.011 140.681 137.774 140.74 137.774 140.74C137.774 140.74 137.952 140.622 138.307 140.444C138.662 140.267 139.195 140.089 139.846 139.793C141.149 139.26 142.925 138.609 144.878 137.84C146.832 137.07 148.667 136.419 149.97 136.004C150.621 135.768 151.154 135.59 151.509 135.472C151.923 135.353 152.101 135.294 152.101 135.294Z" fill="#057858"/>
<path d="M156.186 148.259C156.186 148.318 155.535 148.614 154.41 149.028C153.285 149.502 151.746 150.094 150.029 150.745C148.312 151.396 146.714 151.988 145.589 152.344C144.464 152.758 143.754 152.995 143.695 152.936C143.695 152.876 144.346 152.58 145.471 152.166C146.595 151.692 148.135 151.1 149.851 150.449C151.568 149.798 153.167 149.206 154.291 148.851C155.416 148.436 156.127 148.259 156.186 148.259Z" fill="#057858"/>
<path d="M164.829 160.158C164.829 160.218 164.237 160.454 163.231 160.869C162.224 161.283 160.863 161.816 159.323 162.408C157.784 163 156.363 163.474 155.357 163.829C154.351 164.184 153.699 164.362 153.699 164.362C153.699 164.302 154.291 164.066 155.298 163.651C156.304 163.237 157.666 162.704 159.205 162.112C160.744 161.52 162.165 161.046 163.171 160.691C164.178 160.336 164.829 160.099 164.829 160.158Z" fill="#057858"/>
<path d="M179.215 167.972C179.215 168.031 178.623 168.268 177.616 168.682C176.61 169.097 175.248 169.63 173.709 170.222C172.17 170.814 170.749 171.287 169.743 171.642C168.736 171.998 168.085 172.175 168.085 172.175C168.085 172.116 168.677 171.879 169.683 171.465C170.69 171.05 172.051 170.518 173.591 169.926C175.13 169.334 176.551 168.86 177.557 168.505C178.563 168.09 179.215 167.913 179.215 167.972Z" fill="#057858"/>
<path d="M222.608 137.721C222.668 137.78 218.168 139.911 212.544 142.398C206.98 144.884 202.421 146.897 202.362 146.779C202.303 146.719 206.802 144.588 212.426 142.102C218.05 139.615 222.608 137.662 222.608 137.721Z" fill="#057858"/>
<path d="M225.568 125.585C225.627 125.644 221.898 127.42 217.28 129.492C212.663 131.564 208.874 133.162 208.874 133.103C208.815 133.044 212.544 131.268 217.162 129.196C221.779 127.124 225.509 125.525 225.568 125.585Z" fill="#057858"/>
<path d="M226.93 111.969C226.989 112.028 223.259 113.804 218.642 115.876C214.024 117.948 210.235 119.546 210.235 119.487C210.176 119.428 213.906 117.652 218.523 115.58C223.141 113.508 226.871 111.85 226.93 111.969Z" fill="#057858"/>
<path d="M228.291 98.2936C228.35 98.3528 224.621 100.129 220.003 102.201C215.386 104.273 211.597 105.871 211.597 105.812C211.538 105.753 215.267 103.977 219.885 101.905C224.502 99.8328 228.232 98.2344 228.291 98.2936Z" fill="#057858"/>
<path d="M229.653 84.6784C229.712 84.7376 225.982 86.5135 221.365 88.5855C216.747 90.6575 212.958 92.2559 212.958 92.1967C212.899 92.1375 216.629 90.3615 221.246 88.2895C225.864 86.2175 229.594 84.6192 229.653 84.6784Z" fill="#057858"/>
<path d="M226.93 72.5416C226.989 72.6008 223.259 74.3768 218.642 76.4488C214.024 78.5208 210.235 80.1192 210.235 80.06C210.176 80.0008 213.906 78.2248 218.523 76.1528C223.141 74.0808 226.871 72.4824 226.93 72.5416Z" fill="#057858"/>
<path d="M226.93 59.4586C226.989 59.5178 223.259 61.2938 218.642 63.3658C214.024 65.4378 210.235 67.0362 210.235 66.977C210.176 66.9178 213.906 65.1418 218.523 63.0698C223.141 60.9978 226.871 59.3994 226.93 59.4586Z" fill="#057858"/>
<path d="M225.568 47.1451C225.627 47.2043 221.898 48.9804 217.28 51.0524C212.663 53.1244 208.874 54.7227 208.874 54.6635C208.815 54.6043 212.544 52.8284 217.162 50.7564C221.779 48.6844 225.509 47.0859 225.568 47.1451Z" fill="#057858"/>
<path d="M213.847 38.5612C213.906 38.6204 211.656 39.7452 208.815 40.9884C206.032 42.2316 203.723 43.238 203.664 43.1196C203.605 43.0604 205.855 41.9356 208.696 40.6924C211.538 39.4492 213.847 38.502 213.847 38.5612Z" fill="#057858"/>
<path d="M207.631 33.3513C207.69 33.4105 205.44 34.5353 202.599 35.7785C199.816 37.0217 197.507 37.9689 197.448 37.9097C197.389 37.8505 199.639 36.7257 202.48 35.4825C205.263 34.2393 207.571 33.2329 207.631 33.3513Z" fill="#057858"/>
<path d="M149.319 61.4718C149.378 61.531 145.826 62.9518 141.504 64.5502C137.183 66.2078 133.631 67.451 133.572 67.3918C133.512 67.3326 137.064 65.9118 141.386 64.3134C145.708 62.6558 149.26 61.4126 149.319 61.4718Z" fill="#057858"/>
<path d="M153.64 43.8294C153.699 43.8886 149.851 45.4278 145.175 47.2038C140.439 48.9798 136.591 50.3414 136.591 50.2822C136.531 50.223 140.379 48.6838 145.056 46.9078C149.792 45.0726 153.64 43.711 153.64 43.8294Z" fill="#057858"/>
<path d="M165.066 26.3061C165.125 26.3653 160.271 28.2597 154.291 30.5093C148.312 32.7589 143.458 34.4757 143.458 34.4165C143.399 34.3573 148.253 32.4629 154.232 30.2133C160.152 28.0229 165.007 26.2469 165.066 26.3061Z" fill="#057858"/>
<path d="M249.13 137.899C249.13 137.899 249.071 137.899 248.893 137.84C248.715 137.781 248.479 137.662 248.183 137.544C247.887 137.425 247.472 137.366 246.999 137.189C246.525 137.129 245.933 137.011 245.341 137.011C242.795 136.833 239.007 137.781 235.336 140.504C233.501 141.806 231.725 143.641 230.067 145.713C228.351 147.785 226.693 150.153 224.799 152.521C222.904 154.889 220.714 157.257 217.991 159.152C215.267 160.987 212.011 162.349 208.578 163C205.144 163.651 201.592 163.473 198.395 162.645C195.199 161.875 192.239 160.632 189.456 159.329C186.733 158.027 184.128 156.784 181.701 155.659C179.274 154.593 176.847 153.765 174.656 153.232C172.407 152.699 170.394 152.521 168.559 152.521C166.723 152.521 165.184 152.817 163.941 153.173C162.698 153.528 161.81 153.942 161.218 154.238C160.922 154.416 160.685 154.534 160.567 154.593C160.744 154.475 160.922 154.357 161.218 154.179C161.81 153.824 162.698 153.469 163.941 153.054C165.184 152.699 166.723 152.403 168.559 152.344C170.394 152.285 172.466 152.521 174.715 152.995C176.965 153.528 179.333 154.297 181.819 155.363C184.306 156.429 186.851 157.731 189.634 158.974C192.357 160.217 195.317 161.461 198.514 162.23C201.711 163 205.144 163.177 208.578 162.585C212.011 161.993 215.208 160.632 217.872 158.797C220.595 156.961 222.727 154.593 224.621 152.285C226.515 149.917 228.173 147.608 229.89 145.477C231.607 143.405 233.383 141.569 235.218 140.208C238.947 137.485 242.795 136.537 245.341 136.774C245.992 136.774 246.525 136.952 247.058 137.011C247.531 137.129 247.946 137.248 248.242 137.366C248.538 137.485 248.775 137.603 248.952 137.662C249.071 137.899 249.13 137.899 249.13 137.899Z" fill="white"/>
<path d="M252.859 98.4121C252.859 98.4713 252.445 98.4713 251.735 98.7673C251.024 99.0041 250.018 99.4777 248.893 100.307C247.768 101.076 246.525 102.201 245.104 103.326C243.683 104.451 241.907 105.516 240.013 106.463C236.165 108.299 232.317 109.009 229.535 109.187C228.824 109.246 228.232 109.246 227.64 109.246C227.107 109.246 226.634 109.187 226.219 109.187C225.864 109.127 225.568 109.127 225.331 109.068C225.154 109.068 225.035 109.009 225.035 109.009C225.035 109.009 225.154 109.009 225.331 109.009C225.568 109.009 225.864 109.009 226.219 109.068C226.634 109.068 227.107 109.068 227.64 109.068C228.173 109.068 228.824 109.068 229.475 108.95C232.199 108.772 236.047 108.003 239.835 106.167C241.73 105.279 243.447 104.214 244.867 103.089C246.288 101.964 247.531 100.899 248.715 100.129C249.84 99.3593 250.906 98.8857 251.675 98.6489C252.031 98.5305 252.327 98.4713 252.563 98.4713C252.741 98.4121 252.859 98.4121 252.859 98.4121Z" fill="white"/>
<path d="M175.544 112.146C175.544 112.146 175.426 112.146 175.248 112.087C175.011 112.028 174.715 111.969 174.301 111.909C173.531 111.673 172.407 111.258 171.104 110.548C169.861 109.837 168.44 108.772 166.96 107.529C165.48 106.285 163.882 104.924 162.047 103.621C160.211 102.378 158.317 101.49 156.423 101.076C154.587 100.602 152.811 100.543 151.391 100.602C149.97 100.661 148.786 100.898 148.016 101.135C147.247 101.313 146.832 101.49 146.773 101.431C146.773 101.431 146.891 101.372 147.069 101.313C147.247 101.253 147.543 101.135 147.957 101.017C148.727 100.78 149.911 100.484 151.391 100.425C152.871 100.306 154.647 100.365 156.482 100.839C158.376 101.253 160.389 102.141 162.224 103.444C164.059 104.746 165.658 106.108 167.138 107.351C168.618 108.594 169.979 109.66 171.223 110.429C172.466 111.199 173.531 111.613 174.301 111.909C175.13 111.969 175.544 112.087 175.544 112.146Z" fill="white"/>
<path d="M175.663 56.143C175.663 56.143 175.307 56.2614 174.656 56.4982C174.36 56.6166 173.946 56.735 173.472 56.8534C172.999 56.9718 172.466 57.1494 171.874 57.2086C171.282 57.327 170.631 57.4454 169.92 57.5638C169.21 57.6822 168.44 57.7414 167.671 57.8006C166.072 57.919 164.296 57.919 162.461 57.7414C160.626 57.5638 158.909 57.2086 157.311 56.8534C156.541 56.6166 155.831 56.439 155.12 56.2022C154.469 55.9654 153.818 55.7286 153.285 55.4918C152.693 55.255 152.219 55.0182 151.805 54.8406C151.391 54.663 150.976 54.4262 150.68 54.2486C150.088 53.8934 149.792 53.7158 149.792 53.7158C149.792 53.7158 150.147 53.8342 150.739 54.1302C151.035 54.3078 151.391 54.4854 151.864 54.663C152.279 54.8406 152.811 55.0774 153.344 55.3142C153.877 55.551 154.528 55.7878 155.179 55.9654C155.831 56.2022 156.6 56.3798 157.37 56.6166C158.909 56.9718 160.626 57.327 162.461 57.5046C164.296 57.6822 166.013 57.6822 167.611 57.5638C168.381 57.5046 169.151 57.4454 169.861 57.327C170.571 57.2678 171.223 57.1494 171.815 57.031C172.407 56.9126 172.939 56.7942 173.413 56.6758C173.887 56.5574 174.301 56.4982 174.597 56.3798C175.248 56.2614 175.663 56.143 175.663 56.143Z" fill="white"/>
<path d="M249.485 56.0252C249.485 56.0252 249.367 55.966 249.248 55.9068C249.071 55.7884 248.834 55.67 248.538 55.4924C248.242 55.3148 247.887 55.078 247.413 54.9004C246.999 54.6636 246.466 54.4268 245.933 54.19C245.637 54.0716 245.341 53.9532 245.045 53.8348C244.749 53.7164 244.394 53.598 244.039 53.4796C243.387 53.2428 242.618 53.0652 241.848 52.8284C240.25 52.4732 238.474 52.2364 236.639 52.2364C234.744 52.2364 232.968 52.414 231.429 52.7692C230.659 52.9468 229.89 53.1244 229.179 53.3612C228.824 53.4796 228.528 53.5388 228.173 53.6572C227.877 53.7756 227.581 53.894 227.285 54.0124C226.693 54.19 226.219 54.486 225.746 54.6636C225.272 54.8412 224.917 55.078 224.621 55.2556C224.325 55.4332 224.088 55.5516 223.911 55.6108C223.733 55.67 223.674 55.7292 223.674 55.7292C223.674 55.7292 223.733 55.67 223.911 55.5516C224.088 55.4332 224.325 55.3148 224.562 55.1372C224.858 54.9596 225.213 54.7228 225.627 54.486C226.042 54.2492 226.575 53.9532 227.107 53.7756C227.403 53.6572 227.699 53.5388 227.995 53.4204C228.291 53.302 228.647 53.1836 229.002 53.0652C229.712 52.8284 230.423 52.6508 231.251 52.4732C232.85 52.118 234.685 51.9404 236.579 51.9404C238.474 51.9404 240.25 52.2364 241.848 52.5916C242.618 52.8284 243.387 53.006 244.098 53.2428C244.453 53.3612 244.749 53.4796 245.104 53.598C245.4 53.7164 245.696 53.894 245.992 54.0124C246.584 54.2492 247.058 54.5452 247.472 54.782C247.887 55.0188 248.242 55.2556 248.538 55.4332C248.775 55.6108 249.011 55.7292 249.189 55.9068C249.426 55.966 249.544 56.0252 249.485 56.0252Z" fill="white"/>
<path d="M213.314 15.8282C213.314 15.8282 213.195 15.9466 212.899 16.065C212.603 16.2426 212.189 16.4794 211.656 16.7162C210.59 17.3082 208.992 18.137 206.979 19.1434C203.013 21.097 197.448 23.761 190.818 25.4778C187.502 26.3066 184.306 26.721 181.346 26.7802C178.386 26.8394 175.722 26.6026 173.59 26.129C171.4 25.6554 169.683 25.0634 168.558 24.5898C167.966 24.353 167.552 24.1162 167.256 23.9978C166.96 23.8794 166.782 23.761 166.842 23.761C166.842 23.761 167.019 23.8202 167.315 23.9386C167.611 24.057 168.026 24.2938 168.618 24.4714C169.742 24.945 171.459 25.4778 173.65 25.8922C175.84 26.3066 178.445 26.5434 181.346 26.4842C184.246 26.425 187.443 25.9514 190.758 25.1818C197.33 23.5242 202.894 20.8602 206.861 18.9658C208.814 18.0186 210.413 17.1898 211.597 16.657C212.13 16.4202 212.544 16.1834 212.899 16.0058C213.136 15.8874 213.314 15.769 213.314 15.8282Z" fill="white"/>
<path d="M94.4995 118.957L114.272 119.845L113.384 140.801L93.6115 139.913L92.0723 174.782L66.0243 173.657L67.5635 138.789L0.312256 135.829L0.371455 119.845L72.0035 16.9551L98.8803 18.1391L94.4995 118.957ZM26.3603 115.997L68.3923 117.832L71.1747 54.2511L70.5235 54.0143L68.1555 58.5727L26.3603 115.997Z" fill="#057858"/>
<g opacity="0.4">
<path d="M94.4995 118.957L114.272 119.845L113.384 140.801L93.6115 139.913L92.0723 174.782L66.0243 173.657L67.5635 138.789L0.312256 135.829L0.371455 119.845L72.0035 16.9551L98.8803 18.1391L94.4995 118.957ZM26.3603 115.997L68.3923 117.832L71.1747 54.2511L70.5235 54.0143L68.1555 58.5727L26.3603 115.997Z" fill="black"/>
</g>
<path d="M111.016 119.667L130.789 120.555L129.901 141.512L110.128 140.624L108.589 175.493L82.5411 174.368L84.0803 139.499L16.8291 136.539L16.8883 120.555L88.5203 17.7246L115.397 18.9086L111.016 119.667ZM42.9363 116.707L84.9683 118.542L87.7507 54.9614L87.0995 54.7246L84.7315 59.283L42.9363 116.707Z" fill="#057858"/>
<path d="M17.2437 123.632C17.2437 123.632 17.0069 123.75 16.5925 123.987C16.1781 124.224 15.5861 124.52 14.8165 124.875C13.2773 125.585 11.1461 126.533 8.77808 127.539C6.41008 128.545 4.21968 129.374 2.68048 129.966C1.91088 130.262 1.25968 130.499 0.786084 130.677C0.312484 130.854 0.0756836 130.913 0.0756836 130.913C0.0756836 130.913 0.312485 130.795 0.726885 130.617C1.20048 130.381 1.85168 130.144 2.56208 129.848C4.16048 129.197 6.29168 128.309 8.65968 127.302C10.9685 126.296 13.0997 125.408 14.6981 124.697C15.4085 124.401 16.0597 124.105 16.5333 123.928C17.0069 123.691 17.2437 123.632 17.2437 123.632Z" fill="#057858"/>
<path d="M26.8931 105.931C26.8931 105.931 26.5971 106.109 26.0051 106.405C25.4131 106.701 24.5843 107.115 23.5187 107.589C21.3875 108.536 18.4867 109.839 15.2307 111.2C11.9747 112.562 9.01474 113.805 6.82434 114.634C5.75874 115.048 4.87074 115.403 4.27874 115.581C3.68674 115.818 3.33154 115.936 3.33154 115.877C3.33154 115.877 3.62754 115.699 4.21954 115.463C4.87074 115.167 5.69954 114.811 6.76514 114.397C8.95554 113.509 11.8563 112.266 15.1123 110.904C18.3683 109.543 21.2691 108.299 23.4595 107.352C24.4659 106.938 25.3539 106.523 26.0051 106.287C26.5379 106.05 26.8931 105.872 26.8931 105.931Z" fill="#057858"/>
<path d="M38.6147 90.1248C38.6147 90.1248 38.3187 90.3024 37.6675 90.5984C37.0756 90.8944 36.1875 91.3088 35.0627 91.7824C32.8723 92.7296 29.7939 94.032 26.4195 95.3936C23.0451 96.7552 19.9076 97.9984 17.658 98.8272C16.5332 99.2416 15.6451 99.5968 14.9939 99.7744C14.3427 100.011 13.9875 100.13 13.9875 100.07C13.9875 100.07 14.3428 99.8927 14.9348 99.6559C15.586 99.3599 16.4739 99.0048 17.5987 98.5904C19.8483 97.7024 22.9268 96.4592 26.3012 95.0976C29.6756 93.736 32.7539 92.4928 35.0035 91.5456C36.0691 91.1312 36.9571 90.7167 37.6675 90.4799C38.2595 90.2431 38.6147 90.0656 38.6147 90.1248Z" fill="#057858"/>
<path d="M85.7378 108.358C85.7378 108.358 85.501 108.477 85.0866 108.714C84.6722 108.891 84.021 109.187 83.3106 109.542C81.7714 110.253 79.6402 111.141 77.2722 112.088C74.9042 113.035 72.7138 113.864 71.1746 114.456C70.405 114.752 69.7538 114.989 69.2802 115.107C68.8066 115.226 68.5698 115.344 68.5698 115.285C68.5698 115.285 68.8066 115.166 69.221 114.989C69.6946 114.811 70.3458 114.515 71.0562 114.219C72.6546 113.568 74.7858 112.739 77.1538 111.792C79.4626 110.845 81.5938 109.957 83.1922 109.306C83.9026 109.01 84.5538 108.773 85.0274 108.536C85.501 108.418 85.7378 108.358 85.7378 108.358Z" fill="#057858"/>
<path d="M83.8436 140.919C83.8436 140.919 83.6068 141.037 83.1924 141.274C82.778 141.452 82.186 141.748 81.4756 142.103C79.9956 142.813 77.9236 143.701 75.6148 144.649C73.306 145.596 71.234 146.425 69.6948 147.017C68.9252 147.313 68.3332 147.549 67.8596 147.668C67.4452 147.786 67.2084 147.905 67.1492 147.845C67.1492 147.845 67.386 147.727 67.8004 147.549C68.274 147.372 68.866 147.076 69.5764 146.78C71.1748 146.129 73.1876 145.3 75.4964 144.353C77.746 143.405 79.818 142.517 81.3572 141.866C82.0676 141.57 82.6596 141.333 83.1332 141.097C83.6068 140.978 83.8436 140.86 83.8436 140.919Z" fill="#057858"/>
<path d="M83.5474 152.286C83.5474 152.286 83.3106 152.405 82.8962 152.641C82.4818 152.819 81.8898 153.115 81.1794 153.47C79.6994 154.181 77.6274 155.069 75.3186 156.016C73.0098 156.963 70.9378 157.792 69.3986 158.384C68.629 158.68 68.037 158.917 67.5634 159.035C67.149 159.153 66.9122 159.272 66.853 159.213C66.7938 159.153 67.0898 159.094 67.5042 158.917C67.9778 158.739 68.5698 158.443 69.2802 158.147C70.8786 157.496 72.8914 156.667 75.2002 155.72C77.4498 154.773 79.5218 153.885 81.061 153.233C81.7714 152.937 82.3634 152.701 82.837 152.464C83.3106 152.345 83.5474 152.286 83.5474 152.286Z" fill="#057858"/>
<path d="M83.3106 163.711C83.3106 163.711 83.0738 163.829 82.6594 164.066C82.245 164.244 81.653 164.54 80.9426 164.895C79.4626 165.605 77.3906 166.493 75.0818 167.441C72.773 168.388 70.701 169.217 69.1618 169.809C68.3922 170.105 67.8002 170.341 67.3266 170.46C66.9122 170.578 66.6754 170.697 66.6162 170.637C66.6162 170.637 66.853 170.519 67.2674 170.341C67.741 170.164 68.333 169.868 69.0434 169.572C70.6418 168.921 72.6546 168.092 74.9634 167.145C77.213 166.197 79.285 165.309 80.8242 164.658C81.5346 164.362 82.1266 164.125 82.6002 163.889C83.0146 163.77 83.3106 163.652 83.3106 163.711Z" fill="#057858"/>
<path d="M86.0337 96.3409C86.0337 96.3409 85.7969 96.4593 85.3825 96.6961C84.9681 96.8737 84.3169 97.1697 83.6065 97.5249C82.0673 98.2353 79.9361 99.1233 77.5681 100.071C75.2001 101.018 73.0097 101.847 71.4705 102.439C70.7009 102.735 70.0497 102.971 69.5761 103.09C69.1025 103.208 68.8657 103.327 68.8657 103.267C68.8657 103.208 69.1025 103.149 69.5169 102.971C69.9905 102.794 70.6417 102.498 71.3521 102.202C72.9505 101.551 75.0817 100.722 77.4497 99.7745C79.7585 98.8273 81.8897 97.9393 83.4881 97.2881C84.1985 96.9921 84.8497 96.7553 85.3233 96.5185C85.7969 96.4001 86.0337 96.2817 86.0337 96.3409Z" fill="#057858"/>
<path d="M86.3892 84.2646C86.3892 84.2646 86.1524 84.3831 85.738 84.6199C85.3236 84.7975 84.6724 85.0934 83.962 85.4486C82.4228 86.159 80.2916 87.0471 77.9236 87.9943C75.5556 88.9415 73.3652 89.7703 71.826 90.3623C71.0564 90.6583 70.4052 90.8951 69.9316 91.0135C69.458 91.1319 69.2212 91.2503 69.2212 91.1911C69.2212 91.1911 69.458 91.0727 69.8724 90.8951C70.346 90.7175 70.9972 90.4215 71.7076 90.1255C73.306 89.4743 75.4372 88.6455 77.8052 87.6983C80.114 86.7511 82.2452 85.8631 83.8436 85.2119C84.554 84.9159 85.2052 84.6791 85.6788 84.4423C86.0932 84.3239 86.3892 84.2646 86.3892 84.2646Z" fill="#057858"/>
<path d="M86.6851 72.2471C86.6851 72.2471 86.4483 72.3655 86.0931 72.6023C85.6787 72.7799 85.0867 73.0759 84.3763 73.4311C82.8963 74.0823 80.8835 74.9703 78.6339 75.9175C76.3843 76.8055 74.3123 77.6343 72.7731 78.1671C72.0035 78.4631 71.4115 78.6407 70.9971 78.7591C70.5827 78.8775 70.3459 78.9367 70.3459 78.9367C70.3459 78.9367 70.5827 78.8183 70.9971 78.6407C71.4707 78.4631 72.0627 78.2263 72.7731 77.9303C74.3123 77.3383 76.3251 76.5095 78.5747 75.6215C80.8243 74.7335 82.7779 73.9047 84.3763 73.2535C85.0867 72.9575 85.6787 72.7207 86.1523 72.5431C86.4483 72.3063 86.6851 72.2471 86.6851 72.2471Z" fill="#057858"/>
<path d="M88.0467 60.9987C88.1059 61.0579 86.7443 61.6499 85.0867 62.2419C83.4291 62.8339 82.0675 63.3075 82.0083 63.1891C82.0083 63.1299 83.3107 62.5379 84.9683 61.9459C86.6259 61.3539 87.9875 60.8803 88.0467 60.9987Z" fill="#057858"/>
<path d="M50.3953 73.7275C50.3953 73.7275 50.0993 73.9051 49.4481 74.2011C48.8561 74.4971 47.9681 74.9115 46.8433 75.3851C44.6529 76.3323 41.5745 77.6347 38.2001 78.9963C34.8257 80.3579 31.6881 81.6011 29.4385 82.4299C28.3137 82.8443 27.4257 83.1995 26.7745 83.3771C26.1233 83.6139 25.7681 83.7323 25.7681 83.6731C25.7681 83.6731 26.1233 83.4955 26.7153 83.2587C27.3665 82.9627 28.2545 82.6075 29.3793 82.1931C31.6289 81.3051 34.7073 80.0619 38.0817 78.7003C41.4561 77.3387 44.5345 76.0955 46.7841 75.1483C47.8497 74.7339 48.7377 74.3195 49.4481 74.0827C50.0401 73.8459 50.3953 73.7275 50.3953 73.7275Z" fill="#057858"/>
<path d="M62.1169 57.3291C62.1169 57.3291 61.8209 57.5067 61.1697 57.8027C60.5777 58.0987 59.6897 58.5131 58.5649 58.9867C56.3745 59.9339 53.2961 61.2363 49.9217 62.5979C46.5473 63.9595 43.4097 65.2027 41.1601 66.0315C40.0353 66.4459 39.1473 66.8011 38.4961 66.9787C37.8449 67.2155 37.4897 67.3339 37.4897 67.2747C37.4897 67.2747 37.8449 67.0971 38.4369 66.8603C39.0881 66.5643 39.9761 66.2091 41.1009 65.7947C43.3505 64.9067 46.4289 63.6635 49.8033 62.3019C53.1777 60.9403 56.2561 59.6971 58.5057 58.7499C59.5713 58.3355 60.4593 57.9211 61.1697 57.6843C61.7617 57.4475 62.1169 57.3291 62.1169 57.3291Z" fill="#057858"/>
<path d="M72.9507 40.9307C72.9507 40.9307 72.6547 41.1083 72.0035 41.4043C71.4115 41.7003 70.5235 42.1147 69.3987 42.5883C67.2083 43.5355 64.1299 44.8379 60.7555 46.1995C57.3811 47.5611 54.2435 48.8043 51.9939 49.6331C50.8691 50.0475 49.9811 50.4027 49.3299 50.5803C48.6787 50.8171 48.3235 50.9355 48.3235 50.8763C48.3235 50.8763 48.6787 50.6987 49.2707 50.4619C49.9219 50.1659 50.8099 49.8107 51.9347 49.3963C54.1843 48.5083 57.2627 47.2651 60.6371 45.9035C64.0115 44.5419 67.0899 43.2987 69.3395 42.3515C70.4051 41.9371 71.2931 41.5227 72.0035 41.2859C72.5955 41.0491 72.9507 40.9307 72.9507 40.9307Z" fill="#057858"/>
<path d="M84.2578 25.1836C84.2578 25.1836 83.9618 25.3612 83.3106 25.6572C82.7186 25.9532 81.8306 26.3676 80.7058 26.8412C78.5154 27.7884 75.437 29.0908 72.0626 30.4524C68.6882 31.814 65.5506 33.0572 63.301 33.886C62.1762 34.3004 61.2882 34.6556 60.637 34.8332C59.9858 35.07 59.6306 35.1884 59.6306 35.1292C59.6306 35.1292 59.9858 34.9516 60.5778 34.7148C61.229 34.4188 62.117 34.0636 63.2418 33.6492C65.4914 32.7612 68.5698 31.518 71.9442 30.1564C75.3186 28.7948 78.397 27.5516 80.6466 26.6044C81.7122 26.19 82.6002 25.7756 83.3106 25.5388C83.9026 25.302 84.2578 25.1836 84.2578 25.1836Z" fill="#057858"/>
<path d="M114.213 49.2768C114.213 49.2768 114.095 49.3952 113.858 49.6912C113.621 49.928 113.266 50.2832 112.792 50.7568C111.845 51.5856 110.306 52.7696 108.175 53.7168C106.043 54.664 103.32 55.4336 100.242 55.4928C98.7026 55.552 97.1042 55.3744 95.4466 54.96C93.789 54.5456 92.1906 53.8944 90.5922 53.1248C87.3954 51.5856 84.5538 49.7504 81.8306 48.448C79.1074 47.1456 76.3842 46.4944 74.0754 46.4352C71.7666 46.376 69.9314 46.8496 68.8066 47.4416C68.2146 47.7376 67.8002 47.9744 67.5042 48.152C67.2082 48.3296 67.0898 48.448 67.0898 48.448C67.0898 48.448 67.2082 48.3296 67.5042 48.0928C67.741 47.856 68.2146 47.6192 68.7474 47.3232C69.8722 46.7312 71.7666 46.1392 74.0754 46.1984C76.3842 46.2576 79.1666 46.9088 81.949 48.2112C84.7314 49.4544 87.573 51.2896 90.7698 52.8288C92.3682 53.5984 93.9666 54.2496 95.565 54.6048C97.1634 55.0192 98.7618 55.1968 100.301 55.1376C103.32 55.0784 106.043 54.368 108.115 53.4208C110.187 52.4736 111.727 51.408 112.733 50.5792C113.266 50.1648 113.621 49.8096 113.858 49.5728C114.095 49.3952 114.213 49.2768 114.213 49.2768Z" fill="white"/>
<path d="M105.984 19.9736C105.984 19.9736 105.747 20.1512 105.215 20.388C104.741 20.684 103.971 20.98 103.083 21.3944C102.136 21.8088 101.011 22.2232 99.7682 22.5784C98.525 22.9336 97.1042 23.2888 95.565 23.5256C94.0258 23.7624 92.605 23.8808 91.3026 23.94C90.0002 23.9992 88.757 23.94 87.8098 23.8808C86.8034 23.8216 86.0338 23.7032 85.4418 23.5848C84.909 23.4664 84.613 23.4072 84.613 23.4072C84.613 23.4072 84.909 23.4072 85.501 23.4664C86.0338 23.5256 86.8626 23.5848 87.869 23.644C88.8754 23.7032 90.0594 23.7032 91.3618 23.644C92.6642 23.5848 94.1442 23.4664 95.6242 23.2296C97.1042 22.9928 98.525 22.6376 99.7682 22.2824C101.011 21.9272 102.136 21.5128 103.083 21.1576C104.031 20.8024 104.741 20.5064 105.274 20.2696C105.688 20.092 105.984 19.9736 105.984 19.9736Z" fill="white"/>
<path d="M63.9524 85.7448C63.9524 85.7448 63.7748 85.5672 63.4196 85.1528C63.0644 84.7384 62.5908 84.1464 61.9988 83.4952C60.8148 82.0744 59.098 80.2392 57.026 78.2856C56.0196 77.3384 54.954 76.5096 53.9476 75.9176C52.882 75.3256 51.8756 74.9112 50.9876 74.7928C49.2116 74.4376 48.0276 74.852 48.0276 74.7928C48.0276 74.7928 48.0868 74.7336 48.2052 74.7336C48.3236 74.6744 48.5604 74.6152 48.7972 74.6152C49.33 74.556 50.0996 74.4968 50.9876 74.6152C51.9348 74.7928 53.0004 75.148 54.066 75.74C55.1316 76.332 56.1972 77.1608 57.2628 78.1672C59.3348 80.0616 60.9924 82.0152 62.1764 83.436C62.7684 84.1464 63.1828 84.7384 63.4788 85.1528C63.834 85.508 64.0116 85.7448 63.9524 85.7448Z" fill="white"/>
<path d="M111.194 103.624C111.194 103.624 111.135 103.683 110.957 103.801C110.78 103.92 110.543 104.097 110.247 104.275C109.655 104.63 108.708 105.163 107.464 105.577C105.037 106.524 101.367 107.176 97.4597 106.347C93.5525 105.518 90.4149 103.505 88.5797 101.67C87.6325 100.782 86.9813 99.9533 86.5669 99.3613C86.3301 99.0653 86.2117 98.8285 86.0933 98.6509C85.9749 98.4733 85.9157 98.4141 85.9749 98.4141C85.9749 98.4141 86.2117 98.7101 86.6853 99.3021C87.1589 99.8941 87.8101 100.664 88.7573 101.492C90.6517 103.209 93.7301 105.222 97.5781 105.992C101.426 106.761 105.037 106.169 107.464 105.281C108.648 104.867 109.596 104.393 110.247 104.038C110.839 103.801 111.194 103.624 111.194 103.624Z" fill="white"/>
<path d="M128.421 141.097C128.421 141.097 128.362 140.978 128.244 140.801C128.125 140.623 127.948 140.327 127.77 139.972C127.415 139.261 126.704 138.196 125.757 136.953C125.52 136.657 125.224 136.361 124.928 136.005C124.81 135.828 124.632 135.65 124.514 135.473C124.336 135.295 124.159 135.177 124.04 134.999C123.685 134.644 123.33 134.289 122.975 133.933C122.56 133.578 122.146 133.282 121.732 132.927C119.956 131.565 117.824 130.145 115.22 129.079C112.615 128.013 109.596 127.185 106.34 127.007C103.024 126.829 99.4724 127.303 96.0388 128.665C92.6052 130.026 89.2308 132.098 85.6788 134.052C83.9028 135.058 82.0676 136.005 80.114 136.834C78.1604 137.604 76.0884 138.255 73.898 138.433C71.7668 138.669 69.5764 138.492 67.5044 138.018C65.4324 137.604 63.4788 136.834 61.6436 136.005C57.914 134.289 54.658 132.098 51.6388 129.908C48.6196 127.717 45.7188 125.645 42.8772 123.988C40.0356 122.33 37.194 121.028 34.4708 120.377C31.7476 119.725 29.1428 119.607 26.9524 119.903C24.7028 120.14 22.8676 120.791 21.506 121.501C20.0852 122.212 19.138 123.041 18.546 123.514C18.25 123.81 18.0132 124.047 17.8948 124.165C18.0724 123.988 18.25 123.751 18.546 123.455C19.1972 122.922 20.0852 122.093 21.506 121.324C22.9268 120.613 24.762 119.962 27.0116 119.666C29.2612 119.37 31.866 119.489 34.5892 120.14C37.3716 120.791 40.2132 122.093 43.114 123.751C46.0148 125.409 48.8564 127.481 51.9348 129.671C54.954 131.802 58.21 134.052 61.8804 135.709C63.7156 136.538 65.6692 137.249 67.682 137.722C69.6948 138.137 71.826 138.373 73.9572 138.077C76.0884 137.841 78.1012 137.249 80.0548 136.479C82.0084 135.709 83.8436 134.703 85.5604 133.756C89.1124 131.802 92.4276 129.73 95.9204 128.369C96.8084 128.073 97.6964 127.717 98.5844 127.54C98.9988 127.421 99.4724 127.303 99.8868 127.185C100.36 127.125 100.775 127.066 101.189 126.948C102.965 126.652 104.682 126.652 106.34 126.711C109.655 126.889 112.733 127.717 115.338 128.842C117.943 129.967 120.133 131.388 121.85 132.749C122.264 133.105 122.679 133.46 123.093 133.815C123.448 134.17 123.804 134.525 124.159 134.881C124.336 135.058 124.514 135.236 124.632 135.354C124.751 135.532 124.928 135.709 125.047 135.887C125.343 136.242 125.58 136.538 125.816 136.834C126.764 138.077 127.415 139.143 127.829 139.853C128.007 140.209 128.184 140.505 128.303 140.682C128.421 140.978 128.421 141.097 128.421 141.097Z" fill="white"/>
<path d="M110.543 165.843C110.543 165.843 110.424 165.902 110.247 165.902C110.01 165.961 109.714 166.02 109.359 166.079C109.004 166.139 108.53 166.257 107.938 166.257C107.405 166.316 106.754 166.375 106.103 166.435C105.748 166.435 105.392 166.494 105.037 166.494C104.682 166.494 104.268 166.494 103.853 166.494C103.024 166.494 102.196 166.435 101.248 166.316C99.4131 166.139 97.4595 165.783 95.3875 165.191C93.3747 164.599 91.4803 163.83 89.8227 163.001C88.9939 162.587 88.2243 162.172 87.5731 161.758C87.2179 161.521 86.8627 161.343 86.5667 161.107C86.2707 160.87 85.9747 160.692 85.6787 160.455C85.0867 160.1 84.6131 159.686 84.1987 159.331C83.7843 158.975 83.4291 158.679 83.1331 158.383C82.8963 158.147 82.6595 157.91 82.4819 157.791C82.3635 157.673 82.2451 157.555 82.2451 157.555C82.2451 157.555 82.3635 157.614 82.4819 157.732C82.6595 157.91 82.8963 158.087 83.1923 158.324C83.4883 158.561 83.8435 158.857 84.2579 159.212C84.6723 159.508 85.2051 159.923 85.7379 160.278C86.0339 160.455 86.3299 160.692 86.6259 160.87C86.9219 161.107 87.2771 161.284 87.6323 161.462C88.3427 161.876 89.1123 162.291 89.8819 162.705C91.5395 163.475 93.3747 164.244 95.3875 164.836C97.4003 165.428 99.3539 165.783 101.189 165.961C102.077 166.02 102.965 166.139 103.735 166.139C104.149 166.139 104.504 166.198 104.919 166.139C105.274 166.139 105.629 166.139 105.984 166.139C106.695 166.139 107.287 166.079 107.82 166.02C108.352 165.961 108.826 165.902 109.24 165.843C109.596 165.783 109.892 165.783 110.128 165.724C110.424 165.843 110.543 165.843 110.543 165.843Z" fill="white"/>
<path d="M351.546 119.193L371.259 117.239L373.331 138.137L353.618 140.09L356.992 174.781L331.062 177.327L327.688 142.636L260.733 149.207L258.542 133.401L314.96 21.4534L341.718 18.8486L351.546 119.193ZM283.702 125.823L325.616 121.738L319.4 58.3942L318.749 58.2166L317.032 63.0118L283.702 125.823Z" fill="#057858"/>
<g opacity="0.4">
<path d="M351.546 119.193L371.259 117.239L373.331 138.137L353.618 140.09L356.992 174.781L331.062 177.327L327.688 142.636L260.733 149.207L258.542 133.401L314.96 21.4534L341.718 18.8486L351.546 119.193ZM283.702 125.823L325.616 121.738L319.4 58.3942L318.749 58.2166L317.032 63.0118L283.702 125.823Z" fill="black"/>
</g>
<path d="M368.062 117.593L387.776 115.639L389.848 136.537L370.134 138.491L373.509 173.182L347.579 175.727L344.205 141.036L277.249 147.607L275.059 131.801L331.477 19.8538L358.235 17.249L368.062 117.593ZM300.219 124.223L342.133 120.139L335.917 56.7946L335.265 56.617L333.549 61.4122L300.219 124.223Z" fill="#057858"/>
<path d="M275.77 134.701C275.77 134.701 275.592 134.879 275.178 135.175C274.763 135.471 274.23 135.826 273.52 136.3C272.099 137.247 270.146 138.49 267.955 139.792C265.765 141.095 263.752 142.279 262.272 143.108C261.562 143.522 260.91 143.818 260.496 144.055C260.082 144.292 259.845 144.351 259.845 144.351C259.845 144.351 260.022 144.173 260.437 143.936C260.91 143.64 261.443 143.344 262.154 142.93C263.634 142.042 265.646 140.858 267.837 139.556C270.027 138.253 271.981 137.069 273.461 136.122C274.112 135.708 274.704 135.352 275.178 135.116C275.533 134.82 275.71 134.701 275.77 134.701Z" fill="#057858"/>
<path d="M282.814 115.817C282.814 115.817 282.518 116.054 281.985 116.409C281.453 116.764 280.683 117.297 279.677 117.889C277.723 119.132 275 120.849 271.981 122.625C268.961 124.46 266.179 126.059 264.166 127.184C263.16 127.776 262.331 128.19 261.739 128.486C261.147 128.782 260.851 128.96 260.851 128.9C260.851 128.9 261.147 128.664 261.68 128.368C262.272 128.012 263.101 127.539 264.048 126.947C266.061 125.704 268.784 124.105 271.803 122.27C274.822 120.435 277.545 118.836 279.558 117.593C280.505 117.001 281.334 116.528 281.926 116.172C282.459 115.936 282.755 115.758 282.814 115.817Z" fill="#057858"/>
<path d="M292.227 98.4707C292.227 98.4707 291.931 98.7075 291.399 99.0627C290.807 99.4179 290.037 99.9507 288.971 100.602C286.899 101.845 284.058 103.562 280.92 105.397C277.723 107.232 274.823 108.89 272.751 110.015C271.685 110.607 270.856 111.021 270.264 111.376C269.672 111.672 269.317 111.85 269.317 111.85C269.317 111.85 269.613 111.613 270.205 111.317C270.856 110.962 271.685 110.488 272.691 109.896C274.823 108.653 277.664 106.995 280.802 105.219C283.939 103.384 286.781 101.727 288.912 100.483C289.918 99.8915 290.747 99.4179 291.399 99.0627C291.872 98.6483 292.227 98.4707 292.227 98.4707Z" fill="#057858"/>
<path d="M341.423 109.956C341.423 109.956 341.245 110.133 340.831 110.37C340.416 110.607 339.883 111.021 339.173 111.436C337.752 112.324 335.799 113.567 333.549 114.81C331.359 116.113 329.287 117.237 327.807 118.007C327.037 118.421 326.445 118.717 326.031 118.895C325.616 119.132 325.379 119.191 325.379 119.191C325.379 119.191 325.616 119.013 325.971 118.777C326.445 118.481 327.037 118.185 327.688 117.77C329.227 116.882 331.181 115.757 333.371 114.514C335.562 113.212 337.515 112.087 338.995 111.199C339.706 110.785 340.239 110.489 340.712 110.193C341.186 110.015 341.423 109.897 341.423 109.956Z" fill="#057858"/>
<path d="M344.086 142.396C344.086 142.396 343.909 142.574 343.494 142.811C343.139 143.048 342.547 143.462 341.896 143.876C340.534 144.764 338.64 145.948 336.449 147.251C334.318 148.553 332.365 149.619 330.885 150.388C330.174 150.803 329.582 151.099 329.168 151.276C328.753 151.454 328.517 151.572 328.517 151.572C328.517 151.572 328.694 151.395 329.109 151.158C329.582 150.862 330.115 150.566 330.766 150.152C332.246 149.264 334.141 148.139 336.272 146.896C338.403 145.652 340.297 144.468 341.718 143.58C342.369 143.166 342.961 142.87 343.376 142.574C343.849 142.515 344.086 142.396 344.086 142.396Z" fill="#057858"/>
<path d="M345.448 153.764C345.448 153.764 345.27 153.941 344.856 154.178C344.501 154.415 343.909 154.829 343.258 155.244C341.896 156.132 340.002 157.316 337.811 158.618C335.68 159.921 333.726 160.986 332.246 161.756C331.536 162.17 330.944 162.466 330.53 162.644C330.115 162.821 329.878 162.94 329.878 162.94C329.878 162.94 330.056 162.762 330.47 162.525C330.944 162.229 331.477 161.933 332.128 161.519C333.608 160.631 335.502 159.506 337.634 158.263C339.765 157.02 341.659 155.836 343.08 154.948C343.731 154.533 344.323 154.237 344.738 153.941C345.211 153.823 345.448 153.705 345.448 153.764Z" fill="#057858"/>
<path d="M346.75 165.07C346.75 165.07 346.573 165.248 346.158 165.485C345.803 165.722 345.211 166.136 344.56 166.55C343.198 167.438 341.304 168.622 339.113 169.925C336.982 171.227 335.029 172.293 333.549 173.062C332.838 173.477 332.246 173.773 331.832 173.95C331.417 174.128 331.181 174.246 331.181 174.246C331.181 174.246 331.358 174.069 331.773 173.832C332.246 173.536 332.779 173.24 333.43 172.826C334.91 171.938 336.805 170.813 338.936 169.57C341.067 168.326 342.961 167.142 344.382 166.254C345.033 165.84 345.625 165.544 346.04 165.248C346.513 165.189 346.75 165.07 346.75 165.07Z" fill="#057858"/>
<path d="M340.061 97.9968C340.061 97.9968 339.883 98.1744 339.469 98.4112C339.054 98.648 338.522 99.0624 337.811 99.4768C336.39 100.365 334.437 101.608 332.187 102.851C329.997 104.154 327.925 105.278 326.445 106.048C325.675 106.462 325.083 106.758 324.669 106.936C324.254 107.173 324.018 107.232 324.018 107.232C324.018 107.232 324.254 107.054 324.61 106.818C325.083 106.522 325.675 106.226 326.326 105.811C327.866 104.923 329.819 103.798 332.01 102.555C334.2 101.253 336.154 100.128 337.634 99.24C338.344 98.8256 338.877 98.5296 339.35 98.2336C339.824 98.056 340.061 97.9376 340.061 97.9968Z" fill="#057858"/>
<path d="M338.64 86.0388C338.64 86.0388 338.462 86.2164 338.048 86.4532C337.633 86.69 337.101 87.1044 336.39 87.5188C334.969 88.4068 333.016 89.65 330.766 90.8932C328.576 92.1956 326.504 93.3204 325.024 94.09C324.254 94.5044 323.662 94.8004 323.248 94.978C322.833 95.2148 322.597 95.274 322.597 95.274C322.597 95.274 322.833 95.0964 323.189 94.8596C323.662 94.5636 324.254 94.2676 324.905 93.8532C326.445 92.9652 328.398 91.8404 330.589 90.5972C332.779 89.2948 334.733 88.17 336.213 87.282C336.923 86.8676 337.456 86.5716 337.929 86.2756C338.403 86.098 338.64 85.9796 338.64 86.0388Z" fill="#057858"/>
<path d="M337.278 74.0205C337.278 74.0205 337.101 74.1981 336.746 74.4349C336.39 74.6717 335.858 75.0269 335.147 75.4413C333.786 76.2701 331.891 77.4541 329.819 78.6973C327.688 79.9405 325.794 81.0061 324.373 81.7165C323.662 82.0717 323.07 82.3677 322.715 82.6045C322.301 82.7821 322.064 82.9005 322.064 82.9005C322.064 82.9005 322.242 82.7229 322.656 82.5453C323.07 82.3085 323.662 81.9533 324.314 81.5981C325.734 80.7693 327.629 79.7037 329.701 78.5197C331.773 77.2765 333.667 76.2109 335.088 75.3821C335.739 75.0269 336.272 74.6717 336.746 74.4349C337.042 74.1389 337.278 74.0205 337.278 74.0205Z" fill="#057858"/>
<path d="M337.042 62.714C337.101 62.7732 335.858 63.5428 334.259 64.3716C332.72 65.2004 331.418 65.8516 331.358 65.7924C331.299 65.7332 332.542 64.9636 334.141 64.1348C335.68 63.2468 336.982 62.6548 337.042 62.714Z" fill="#057858"/>
<path d="M301.522 80.5928C301.522 80.5928 301.226 80.8296 300.693 81.1848C300.101 81.54 299.331 82.0728 298.266 82.724C296.194 83.9672 293.352 85.684 290.215 87.5192C287.018 89.3544 284.117 91.012 282.045 92.1368C280.979 92.7288 280.151 93.1432 279.559 93.4984C278.967 93.7944 278.611 93.972 278.611 93.972C278.611 93.972 278.907 93.7352 279.499 93.4392C280.151 93.084 280.979 92.6104 281.986 92.0184C284.117 90.7752 286.959 89.1176 290.096 87.3416C293.234 85.5064 296.075 83.8488 298.207 82.6056C299.213 82.0136 300.042 81.54 300.693 81.1848C301.226 80.7704 301.522 80.5928 301.522 80.5928Z" fill="#057858"/>
<path d="M310.875 62.7139C310.875 62.7139 310.579 62.9507 310.046 63.3059C309.454 63.6611 308.685 64.1939 307.619 64.8451C305.547 66.0883 302.706 67.8051 299.568 69.6403C296.371 71.4755 293.47 73.1331 291.398 74.2579C290.333 74.8499 289.504 75.2643 288.912 75.6195C288.32 75.9155 287.965 76.0931 287.965 76.0931C287.965 76.0931 288.261 75.8563 288.853 75.5603C289.504 75.2051 290.333 74.7315 291.339 74.1395C293.47 72.8963 296.312 71.2387 299.45 69.4627C302.587 67.6275 305.429 65.9699 307.56 64.7267C308.566 64.1347 309.395 63.6611 310.046 63.3059C310.52 62.8915 310.875 62.7139 310.875 62.7139Z" fill="#057858"/>
<path d="M319.282 45.0129C319.282 45.0129 318.986 45.2497 318.453 45.6049C317.861 45.9601 317.091 46.4929 316.026 47.1441C313.954 48.3873 311.112 50.1041 307.974 51.9393C304.778 53.7745 301.877 55.4321 299.805 56.5569C298.739 57.1489 297.91 57.5633 297.318 57.9185C296.726 58.2145 296.371 58.3921 296.371 58.3921C296.371 58.3921 296.667 58.1553 297.259 57.8593C297.91 57.5041 298.739 57.0305 299.746 56.4385C301.877 55.1953 304.718 53.5377 307.856 51.7617C310.994 49.9265 313.835 48.2689 315.966 47.0257C316.973 46.4337 317.802 45.9601 318.453 45.6049C318.986 45.1313 319.282 44.9537 319.282 45.0129Z" fill="#057858"/>
<path d="M328.28 27.7861C328.28 27.7861 327.984 28.0229 327.451 28.3781C326.859 28.7333 326.09 29.2661 325.024 29.9173C322.952 31.1605 320.11 32.8773 316.973 34.7125C313.776 36.5477 310.875 38.2053 308.803 39.3301C307.738 39.9221 306.909 40.3365 306.317 40.6917C305.725 40.9877 305.37 41.1653 305.37 41.1653C305.37 41.1653 305.666 40.9285 306.258 40.6325C306.909 40.2773 307.738 39.8037 308.744 39.2117C310.875 37.9685 313.717 36.3109 316.854 34.5349C319.992 32.6997 322.834 31.0421 324.965 29.7989C325.971 29.2069 326.8 28.7333 327.451 28.3781C327.925 27.9637 328.221 27.7861 328.28 27.7861Z" fill="#057858"/>
<path d="M361.313 47.4404C361.313 47.4404 361.195 47.618 361.017 47.8548C360.84 48.1508 360.544 48.5652 360.129 49.0388C359.3 50.0452 357.939 51.3476 355.985 52.65C354.032 53.8932 351.427 55.018 348.408 55.5508C346.868 55.7876 345.27 55.8468 343.612 55.6692C341.955 55.4916 340.238 55.0772 338.58 54.5444C335.206 53.4788 332.128 52.058 329.227 51.17C326.326 50.282 323.544 49.986 321.294 50.282C318.985 50.5188 317.268 51.2884 316.203 51.9988C315.67 52.354 315.256 52.65 315.019 52.8868C314.782 53.1236 314.604 53.242 314.604 53.242C314.604 53.242 314.723 53.1236 314.96 52.8868C315.196 52.65 315.552 52.2948 316.084 51.9396C317.15 51.17 318.926 50.4004 321.235 50.1044C323.544 49.8084 326.385 50.0452 329.286 50.9332C332.246 51.8212 335.324 53.1828 338.64 54.3076C340.297 54.8404 341.955 55.2548 343.612 55.4324C345.27 55.61 346.868 55.5508 348.348 55.314C351.368 54.8404 353.913 53.7156 355.867 52.5316C357.82 51.2884 359.182 49.986 360.011 49.0388C360.425 48.5652 360.78 48.1508 360.958 47.914C361.195 47.5588 361.313 47.4404 361.313 47.4404Z" fill="white"/>
<path d="M349.059 19.6158C349.059 19.6158 348.822 19.8526 348.349 20.1486C347.875 20.5038 347.224 20.9182 346.336 21.451C345.507 21.9838 344.441 22.5166 343.198 23.1086C342.014 23.6414 340.653 24.1742 339.173 24.6478C337.693 25.1214 336.272 25.4174 334.969 25.6542C333.667 25.891 332.483 26.0094 331.477 26.0686C330.47 26.1278 329.642 26.1278 329.109 26.1278C328.576 26.1278 328.221 26.0686 328.221 26.0686C328.221 26.0686 328.517 26.0094 329.109 26.0094C329.642 26.0094 330.47 25.9502 331.477 25.8318C332.483 25.7726 333.667 25.595 334.91 25.3582C336.213 25.1214 337.633 24.7662 339.054 24.3518C340.475 23.8782 341.837 23.3454 343.08 22.8126C344.264 22.2798 345.329 21.747 346.217 21.2142C347.105 20.7406 347.757 20.3262 348.23 20.0302C348.763 19.7342 349.059 19.5566 349.059 19.6158Z" fill="white"/>
<path d="M316.676 90.5977C316.676 90.5977 316.44 90.4201 316.084 90.0649C315.67 89.7097 315.137 89.1769 314.486 88.5849C313.124 87.4009 311.171 85.7433 308.862 84.1449C307.737 83.3753 306.553 82.6649 305.428 82.1913C304.304 81.7177 303.238 81.5401 302.35 81.4809C300.515 81.3625 299.449 81.9545 299.449 81.8953C299.449 81.8953 299.508 81.8361 299.627 81.7769C299.745 81.7177 299.923 81.6585 300.16 81.5401C300.633 81.3625 301.403 81.2441 302.35 81.2441C303.297 81.2441 304.422 81.4809 305.547 81.8953C306.672 82.3689 307.856 83.0201 309.04 83.8489C311.348 85.4473 313.302 87.1049 314.664 88.3481C315.315 88.9993 315.848 89.5321 316.203 89.8873C316.499 90.3609 316.676 90.5977 316.676 90.5977Z" fill="white"/>
<path d="M365.931 101.667C365.931 101.667 365.872 101.726 365.753 101.904C365.635 102.022 365.398 102.2 365.102 102.437C364.569 102.91 363.681 103.502 362.557 104.154C360.307 105.397 356.755 106.581 352.729 106.344C348.704 106.107 345.329 104.509 343.257 102.97C342.192 102.2 341.422 101.49 340.949 100.957C340.712 100.72 340.534 100.483 340.416 100.365C340.297 100.246 340.238 100.128 340.238 100.128C340.238 100.128 340.534 100.424 341.067 100.898C341.6 101.371 342.369 102.082 343.435 102.792C345.507 104.272 348.881 105.811 352.789 106.048C356.696 106.285 360.189 105.16 362.497 103.976C363.622 103.384 364.51 102.792 365.102 102.378C365.635 101.904 365.931 101.667 365.931 101.667Z" fill="white"/>
<path d="M388.309 136.358C388.309 136.358 388.25 136.299 388.131 136.121C388.013 135.944 387.776 135.707 387.539 135.352C387.066 134.7 386.237 133.753 385.112 132.688C384.816 132.451 384.52 132.155 384.165 131.859C383.987 131.74 383.81 131.563 383.691 131.385C383.514 131.267 383.336 131.089 383.099 130.971C382.685 130.675 382.33 130.379 381.915 130.083C381.501 129.787 381.027 129.55 380.554 129.254C378.6 128.129 376.291 127.064 373.568 126.353C370.845 125.643 367.766 125.288 364.451 125.584C361.136 125.88 357.702 126.886 354.446 128.662C351.19 130.497 348.171 132.984 344.974 135.47C343.376 136.713 341.659 137.897 339.883 138.963C338.048 140.028 336.094 140.916 333.963 141.449C331.832 141.982 329.701 142.1 327.57 141.982C325.438 141.864 323.426 141.39 321.472 140.798C317.565 139.673 314.013 137.897 310.698 136.18C307.382 134.464 304.245 132.806 301.166 131.563C298.088 130.32 295.128 129.432 292.346 129.195C289.563 128.958 286.958 129.195 284.827 129.787C282.637 130.32 280.92 131.208 279.618 132.096C278.315 132.984 277.486 133.931 276.954 134.523C276.717 134.819 276.539 135.115 276.362 135.292C276.243 135.47 276.184 135.529 276.184 135.529C276.184 135.529 276.243 135.411 276.362 135.233C276.48 135.056 276.658 134.819 276.894 134.464C277.427 133.812 278.197 132.865 279.558 131.977C280.861 131.03 282.578 130.142 284.768 129.55C286.958 128.958 289.504 128.662 292.346 128.958C295.187 129.195 298.206 130.083 301.285 131.326C304.363 132.569 307.501 134.227 310.816 135.944C314.131 137.66 317.624 139.377 321.531 140.502C323.485 141.094 325.498 141.508 327.57 141.627C329.642 141.745 331.773 141.686 333.845 141.094C335.917 140.561 337.87 139.673 339.646 138.667C341.422 137.601 343.139 136.417 344.738 135.174C347.934 132.688 351.013 130.201 354.269 128.366C355.098 127.952 355.926 127.478 356.755 127.123C357.17 126.945 357.584 126.768 357.998 126.59C358.413 126.472 358.827 126.294 359.301 126.176C361.018 125.643 362.734 125.406 364.392 125.228C367.707 124.932 370.845 125.347 373.568 126.057C376.291 126.768 378.659 127.892 380.554 129.017C381.027 129.313 381.501 129.609 381.915 129.905C382.33 130.201 382.744 130.497 383.099 130.793C383.277 130.912 383.454 131.089 383.691 131.208C383.869 131.385 384.047 131.504 384.165 131.681C384.461 131.977 384.816 132.273 385.112 132.51C386.237 133.635 387.066 134.582 387.48 135.233C387.717 135.588 387.895 135.825 388.013 136.003C388.25 136.24 388.309 136.358 388.309 136.358Z" fill="white"/>
<path d="M374.041 163.354C374.041 163.354 373.923 163.414 373.745 163.473C373.509 163.532 373.213 163.65 372.917 163.769C372.561 163.887 372.088 164.065 371.555 164.183C371.022 164.302 370.43 164.479 369.72 164.598C369.365 164.657 369.009 164.716 368.654 164.775C368.299 164.834 367.885 164.894 367.47 164.953C366.641 165.071 365.813 165.13 364.865 165.19C363.03 165.249 361.017 165.19 358.945 164.894C356.873 164.598 354.92 164.065 353.144 163.532C352.256 163.236 351.486 162.94 350.717 162.585C350.361 162.407 350.006 162.289 349.651 162.111C349.296 161.934 349 161.756 348.704 161.638C348.053 161.342 347.579 160.986 347.105 160.75C346.632 160.454 346.217 160.217 345.921 159.98C345.625 159.802 345.388 159.625 345.211 159.447C345.033 159.329 344.974 159.27 344.974 159.27C344.974 159.27 345.093 159.329 345.27 159.388C345.448 159.506 345.744 159.684 346.04 159.862C346.336 160.098 346.75 160.335 347.224 160.572C347.697 160.809 348.23 161.164 348.881 161.46C349.177 161.638 349.533 161.756 349.829 161.934C350.184 162.111 350.539 162.23 350.894 162.407C351.605 162.762 352.433 162.999 353.321 163.295C355.038 163.828 356.992 164.361 359.064 164.657C361.136 164.953 363.149 165.012 364.925 164.953C365.813 164.894 366.701 164.894 367.47 164.775C367.885 164.716 368.24 164.716 368.654 164.657C369.009 164.598 369.365 164.538 369.72 164.479C370.43 164.361 371.022 164.242 371.555 164.124C372.088 164.006 372.561 163.887 372.917 163.769C373.272 163.65 373.568 163.591 373.745 163.532C373.923 163.354 374.041 163.354 374.041 163.354Z" fill="white"/>
<path d="M250.788 76.627L246.644 75.9758L220.951 67.6878L205.914 63.3662C202.421 62.1822 197.863 61.7086 192.949 64.2542C185.845 67.8654 166.25 86.099 166.25 86.099L180.34 100.603L173.709 130.025C181.168 151.16 195.672 153.587 195.672 153.587C195.672 153.587 205.204 154.416 216.511 150.153C230.008 145.003 244.216 132.926 245.992 127.717C247.058 124.579 247.946 118.067 248.656 110.667L270.028 101.965L275.829 72.3646L250.788 76.627Z" fill="#455A64"/>
<path d="M219.53 129.02C219.53 129.02 219.471 129.079 219.294 129.198C219.175 129.316 218.938 129.494 218.642 129.671C218.05 130.086 217.222 130.559 216.097 131.033C213.847 131.98 210.354 132.75 206.625 131.921C202.895 131.092 199.994 128.961 198.396 127.185C197.567 126.297 196.975 125.468 196.62 124.876C196.442 124.58 196.324 124.343 196.206 124.166C196.146 123.988 196.087 123.929 196.087 123.929C196.087 123.929 196.324 124.225 196.679 124.817C197.034 125.409 197.626 126.178 198.514 127.066C200.172 128.842 203.014 130.855 206.684 131.684C210.354 132.454 213.788 131.802 216.038 130.914C217.162 130.441 218.05 129.967 218.642 129.612C219.234 129.198 219.53 128.961 219.53 129.02Z" fill="#263238"/>
<path d="M211.42 68.9316C211.42 68.9316 211.42 68.9908 211.479 69.05C211.479 69.1684 211.538 69.2868 211.597 69.4644C211.716 69.8196 211.834 70.3524 211.953 71.0628C212.249 72.4836 212.663 74.5556 212.781 77.1012C212.841 78.4036 212.781 79.8244 212.545 81.3044C212.249 82.7844 211.716 84.3828 210.887 85.8628C209.999 87.3428 208.756 88.7044 207.394 89.9476C205.973 91.1908 204.434 92.3156 202.895 93.5588C199.58 96.0452 196.324 98.354 193.423 100.367C190.522 102.439 187.977 104.274 185.905 105.813L185.845 105.872L185.786 105.813C183.951 104.333 182.589 103.031 181.701 102.143C181.228 101.669 180.932 101.255 180.754 101.018C180.636 100.9 180.577 100.781 180.517 100.722C180.458 100.663 180.458 100.604 180.458 100.604C180.458 100.604 180.577 100.722 180.754 101.018C180.991 101.255 181.287 101.669 181.761 102.084C182.649 102.972 184.069 104.274 185.905 105.695H185.786C187.799 104.096 190.345 102.261 193.245 100.189C196.146 98.1172 199.402 95.8676 202.717 93.322C204.257 92.138 205.796 90.954 207.217 89.77C208.578 88.5268 209.821 87.2244 210.709 85.8036C211.597 84.3828 212.13 82.8436 212.367 81.3636C212.663 79.8836 212.663 78.4628 212.663 77.1604C212.545 74.6148 212.189 72.5428 211.893 71.122C211.775 70.4116 211.657 69.8788 211.597 69.4644C211.538 69.2868 211.538 69.1684 211.538 69.05C211.42 68.9908 211.42 68.9316 211.42 68.9316Z" fill="#263238"/>
<path d="M322.894 82.2504C328.932 77.1 330.945 67.8056 327.63 60.6424C324.788 60.3464 322.005 60.0504 319.164 59.7544C323.485 57.5048 326.031 52.3544 325.321 47.5592C320.762 52.4728 312.829 53.9528 306.85 50.9928C302.884 49.0392 299.687 45.3688 295.366 44.6584C291.399 43.948 287.551 45.8424 283.762 47.1448C279.973 48.5064 275.415 49.2168 272.277 46.7304C269.791 44.7176 269.022 41.284 269.199 38.0872C269.377 34.8904 270.265 31.812 270.501 28.6744C270.916 22.4584 268.193 16.1832 263.634 11.98C262.213 7.48076 258.78 3.57356 254.399 1.73836C249.13 -0.511238 242.618 0.376761 238.119 3.86956C236.284 5.29036 234.685 7.12556 232.613 8.19116C230.245 9.37516 227.463 9.37516 224.917 9.96716C222.372 10.6184 219.649 12.276 219.353 14.94L218.346 20.3272C218.169 20.7416 217.991 21.0968 217.754 21.452C215.564 25.3 211.124 27.7864 210.117 32.108C209.585 34.5352 210.236 37.14 209.466 39.4488C208.401 42.5272 205.085 44.244 203.546 47.0856C201.415 50.9928 202.836 57.9192 206.269 60.82C209.644 63.7208 216.629 66.7992 221.01 67.7464C222.194 63.188 223.26 58.3336 224.266 53.3608C226.042 55.0776 227.937 56.676 229.772 58.3336C234.626 62.5368 239.599 66.8584 242.973 72.364C249.367 82.7832 249.485 96.636 257.537 105.812C259.135 107.647 261.029 109.246 263.338 109.897C265.647 110.607 268.37 110.252 270.087 108.535C272.1 106.522 272.337 103.148 274.586 101.431C277.546 99.0632 281.868 100.958 285.006 102.97C287.314 104.45 289.623 105.99 292.228 106.818C294.833 107.647 297.852 107.588 300.042 105.99C302.233 104.391 303.239 101.017 301.641 98.8264C300.989 97.9384 300.042 97.3464 299.391 96.4584C298.74 95.5704 298.562 94.1496 299.45 93.4984C300.397 92.788 301.759 93.4984 302.766 94.0904C307.798 97.0504 314.25 97.6424 319.756 95.5704C325.261 93.4984 329.761 88.8808 331.655 83.316C328.636 83.7304 325.617 83.3752 322.894 82.2504Z" fill="#263238"/>
<path d="M317.625 35.7785C317.625 35.7785 317.921 35.9561 318.394 36.4297C318.868 36.9033 319.578 37.6137 320.111 38.7385C320.407 39.2713 320.644 39.9817 320.762 40.7513C320.881 41.5209 320.821 42.4089 320.466 43.2377C320.111 44.0665 319.519 44.8953 318.631 45.4281C318.217 45.7241 317.684 45.9017 317.151 45.9609C316.618 46.0201 316.026 45.9609 315.493 45.7241C313.303 44.8361 312.178 42.2905 309.81 41.1657C307.501 39.9225 304.541 39.8633 301.7 40.5145C298.799 41.1657 296.076 42.7049 293.293 44.3033C290.511 45.8425 287.492 47.5593 284.058 48.1513C282.341 48.4473 280.625 48.5065 278.967 48.0921C278.138 47.9145 277.369 47.6185 276.599 47.2041C275.889 46.7897 275.178 46.3161 274.586 45.7241C273.402 44.5993 272.573 43.1193 272.041 41.6985C271.508 40.2185 271.153 38.7385 270.975 37.2585C270.679 34.2985 270.916 31.4569 270.916 28.8521C270.975 26.2473 270.797 23.7609 270.205 21.6297C269.909 20.5641 269.495 19.5577 269.081 18.6697C268.666 17.7817 268.133 16.9529 267.66 16.2425C266.653 14.7625 265.588 13.6969 264.641 12.8681C263.693 12.0393 262.865 11.5065 262.332 11.1513C262.036 10.9737 261.858 10.8553 261.681 10.7961C261.562 10.7369 261.444 10.6777 261.444 10.6777C261.444 10.6777 261.503 10.7369 261.681 10.7961C261.858 10.8553 262.036 10.9737 262.332 11.1513C262.865 11.5065 263.753 11.9801 264.7 12.8089C265.647 13.6377 266.772 14.7033 267.778 16.1833C268.311 16.8937 268.785 17.7225 269.258 18.6105C269.732 19.4985 270.146 20.5049 270.442 21.6297C271.093 23.8201 271.271 26.3065 271.212 28.9113C271.212 31.5753 270.975 34.3577 271.271 37.3177C271.449 38.7977 271.745 40.2777 272.337 41.6985C272.869 43.1193 273.698 44.5401 274.823 45.6057C275.415 46.1385 276.007 46.6713 276.717 47.0265C277.428 47.3817 278.197 47.6777 278.967 47.8553C280.565 48.2105 282.282 48.2105 283.94 47.9145C287.314 47.3225 290.274 45.6649 293.057 44.1257C295.839 42.5865 298.621 40.9881 301.581 40.3369C303.061 40.0409 304.482 39.8633 305.903 39.9817C306.613 40.0409 307.324 40.1593 307.975 40.3369C308.626 40.5145 309.277 40.7513 309.869 41.1065C312.297 42.2905 313.421 44.8361 315.493 45.7241C316.5 46.1385 317.625 46.0201 318.453 45.4873C319.282 44.9545 319.874 44.1849 320.229 43.3561C320.585 42.5273 320.644 41.6985 320.525 40.9881C320.407 40.2185 320.17 39.5673 319.933 39.0345C319.401 37.9097 318.69 37.1993 318.276 36.7257C318.039 36.4889 317.861 36.3113 317.743 36.1929C317.684 35.8969 317.625 35.8377 317.625 35.7785Z" fill="#263238"/>
<path d="M220.892 69.9958C220.892 69.9958 220.892 69.8775 220.833 69.6999C220.833 69.5223 220.773 69.2855 220.655 68.9303C220.477 68.2791 220.063 67.2727 219.175 66.2663C218.287 65.2598 216.985 64.3126 215.268 63.543C213.551 62.7734 211.42 62.3591 209.111 61.9446C206.802 61.4711 204.138 60.9974 201.77 59.399C199.402 57.8006 197.567 55.1367 197.093 51.9399C196.62 48.8023 197.626 45.2503 200.053 42.7639C202.481 40.2775 205.973 38.975 208.815 36.7846C209.525 36.1926 210.177 35.6007 210.65 34.8903C211.124 34.1799 211.538 33.4103 211.775 32.5223C212.249 30.8647 212.189 29.0887 212.367 27.3719C212.426 26.5431 212.545 25.6551 212.841 24.8263C213.077 23.9974 213.551 23.2279 214.084 22.6359C215.209 21.3927 216.807 20.6823 218.346 20.2679C219.885 19.8535 221.365 19.5575 222.786 19.1431C224.207 18.7287 225.569 18.1959 226.693 17.4263C227.818 16.6567 228.765 15.6503 229.594 14.7031C230.423 13.6967 231.133 12.6903 231.785 11.6839C233.087 9.73025 234.212 7.83585 235.396 6.35585C236.58 4.87585 237.764 3.69185 238.829 2.92225C239.895 2.15265 240.901 1.73825 241.553 1.50145C242.204 1.26465 242.618 1.26465 242.618 1.26465C242.618 1.26465 242.263 1.32385 241.612 1.56065C240.961 1.79745 240.013 2.21185 238.948 2.98145C237.882 3.75105 236.698 4.93505 235.573 6.41505C234.389 7.89505 233.324 9.73025 232.021 11.7431C231.37 12.7495 230.66 13.7559 229.831 14.7622C229.002 15.7687 228.055 16.775 226.871 17.5446C225.746 18.3734 224.325 18.9062 222.905 19.3206C221.484 19.735 219.945 20.031 218.465 20.4454C216.985 20.8598 215.445 21.5111 214.38 22.7542C213.847 23.3463 213.433 24.0567 213.196 24.8855C212.959 25.6551 212.841 26.4839 212.722 27.3719C212.545 29.0887 212.604 30.8647 212.13 32.5815C211.893 33.4695 211.479 34.2982 210.946 35.0086C210.413 35.719 209.762 36.3703 209.052 36.9622C207.631 38.0871 206.033 38.975 204.493 39.863C202.954 40.751 201.533 41.6982 200.349 42.8823C197.981 45.3095 196.975 48.8023 197.449 51.8215C197.922 54.8999 199.698 57.5638 202.007 59.103C204.316 60.6422 206.921 61.175 209.229 61.6487C211.538 62.1222 213.729 62.4775 215.445 63.3063C217.162 64.0759 218.524 65.0822 219.412 66.0886C220.3 67.095 220.655 68.1015 220.833 68.8119C220.951 69.1671 220.951 69.4039 220.951 69.5815C220.892 69.8775 220.892 69.9958 220.892 69.9958Z" fill="#263238"/>
<path d="M268.133 16.8344C268.133 16.8344 267.956 16.8344 267.66 16.716C267.364 16.5976 266.949 16.4792 266.476 16.2424C265.469 15.7688 264.226 15.0584 262.924 13.9336C261.681 12.868 260.733 11.684 260.141 10.796C259.845 10.3224 259.608 9.96724 259.49 9.67124C259.372 9.37524 259.312 9.25684 259.312 9.25684C259.372 9.25684 259.668 9.78964 260.319 10.6776C260.97 11.5656 261.917 12.6904 263.16 13.6968C264.404 14.7624 265.647 15.532 266.594 16.0056C267.541 16.5384 268.133 16.7752 268.133 16.8344Z" fill="#455A64"/>
<path d="M287.788 57.2082C287.788 57.2082 287.433 57.0898 286.722 56.9714C286.071 56.853 285.065 56.6754 283.822 56.6162C282.578 56.557 281.158 56.6162 279.5 56.7346C277.902 56.853 276.066 57.0306 274.231 56.9714C272.337 56.9122 270.502 56.6162 269.022 55.965C267.482 55.3138 266.298 54.3666 265.529 53.4194C264.759 52.4722 264.345 51.525 264.167 50.8146C264.108 50.4594 264.049 50.2226 264.049 50.045C264.049 49.8674 264.049 49.749 264.049 49.749C264.108 49.749 264.108 50.1042 264.286 50.7554C264.463 51.4066 264.878 52.2946 265.706 53.2418C266.476 54.1298 267.66 55.077 269.14 55.669C270.62 56.261 272.396 56.557 274.29 56.6162C276.185 56.6754 277.961 56.4978 279.559 56.3794C281.158 56.261 282.638 56.261 283.881 56.3202C285.124 56.3794 286.13 56.6162 286.782 56.7938C287.137 56.9122 287.374 56.9714 287.551 57.0306C287.729 57.149 287.788 57.2082 287.788 57.2082Z" fill="#455A64"/>
<path d="M322.716 84.145C322.716 84.145 322.657 84.2042 322.538 84.2042C322.42 84.2634 322.242 84.3226 322.006 84.3818C321.532 84.5002 320.762 84.5594 319.874 84.2634C318.986 83.9674 317.98 83.4346 317.033 82.4874C316.086 81.5402 315.375 80.1786 314.724 78.6394C314.073 77.1002 313.54 75.3834 312.474 73.785C312.001 72.9562 311.29 72.2458 310.58 71.4762C309.81 70.7658 308.982 70.1146 308.094 69.5818C304.364 67.3322 299.51 66.4442 294.478 66.7402C289.446 66.977 284.769 67.9834 280.388 68.2794C276.007 68.6938 272.041 68.161 268.903 67.0954C265.766 66.0298 263.575 64.313 262.332 62.9514C261.977 62.5962 261.74 62.3002 261.562 62.0042C261.326 61.7082 261.148 61.4714 261.03 61.2938C260.911 61.1162 260.793 60.9386 260.734 60.8202C260.674 60.7018 260.615 60.6426 260.674 60.6426C260.674 60.6426 260.734 60.7018 260.793 60.8202C260.852 60.9386 260.97 61.057 261.089 61.2938C261.207 61.4714 261.385 61.7674 261.622 62.0042C261.858 62.3002 262.095 62.5962 262.45 62.8922C263.694 64.1946 265.884 65.8522 269.022 66.9178C272.159 67.9834 276.066 68.457 280.447 68.0426C284.769 67.7466 289.505 66.7402 294.537 66.4442C299.569 66.1482 304.482 67.0954 308.271 69.4042C309.218 69.937 310.047 70.6474 310.817 71.3578C311.527 72.1274 312.238 72.8378 312.711 73.7258C313.777 75.3834 314.31 77.1594 314.961 78.6394C315.553 80.1786 316.263 81.481 317.151 82.4282C318.039 83.3754 319.046 83.9674 319.874 84.2042C320.762 84.5002 321.473 84.441 321.946 84.3818C322.479 84.2042 322.716 84.0858 322.716 84.145Z" fill="#455A64"/>
<path d="M229.596 16.8403C227.287 16.7811 225.333 18.4979 225.097 20.7475L220.301 70.5939C219.473 77.5795 228.649 92.6162 236.167 93.445C243.745 94.2738 244.514 90.6035 245.461 83.9731C247.119 72.9026 247.652 68.6995 247.652 68.7587C247.652 68.7587 257.42 68.4035 261.031 56.2083C262.807 50.1107 263.873 39.9283 264.405 31.5219C264.938 24.0035 261.149 14.1171 253.631 13.9395L229.596 16.8403Z" fill="#FFBE9D"/>
<path d="M261.149 38.2043C261.09 39.0331 260.261 39.6843 259.373 39.6251C258.485 39.5659 257.834 38.7963 257.893 37.9675C257.952 37.1387 258.781 36.4875 259.669 36.5467C260.557 36.6059 261.208 37.3755 261.149 38.2043Z" fill="#263238"/>
<path d="M261.8 34.9485C261.623 35.1853 260.32 34.3565 258.604 34.4749C256.887 34.5933 255.644 35.5405 255.466 35.3629C255.348 35.3037 255.525 34.8893 256.058 34.4157C256.591 34.0013 257.479 33.5277 258.544 33.4685C259.61 33.4093 260.557 33.7053 261.09 34.1197C261.682 34.5341 261.919 34.8893 261.8 34.9485Z" fill="#263238"/>
<path d="M245.934 39.0969C245.757 39.2745 244.514 38.3865 242.797 38.3273C241.08 38.2681 239.778 39.0969 239.6 38.9193C239.482 38.8009 239.718 38.4457 240.31 38.0313C240.843 37.6169 241.79 37.2617 242.915 37.3209C243.981 37.3801 244.869 37.7945 245.402 38.2089C245.816 38.6233 245.994 39.0377 245.934 39.0969Z" fill="#263238"/>
<path d="M249.131 48.273C249.131 48.1546 250.256 48.1546 251.972 48.1546C252.446 48.1546 252.86 48.1546 252.979 47.8586C253.097 47.5626 252.979 47.0298 252.86 46.497C252.564 45.3722 252.328 44.1882 251.972 43.0042C250.788 37.9722 250.019 33.8874 250.196 33.8874C250.374 33.8282 251.499 37.8538 252.683 42.8858C252.979 44.129 253.216 45.313 253.512 46.4378C253.63 46.9706 253.808 47.5626 253.512 48.2138C253.334 48.5098 252.979 48.7466 252.683 48.7466C252.387 48.8058 252.15 48.7466 251.913 48.7466C250.196 48.5098 249.131 48.3914 249.131 48.273Z" fill="#263238"/>
<path d="M247.65 68.8179C247.65 68.8179 239.185 68.2259 231.548 62.1875C231.548 62.1875 234.626 71.3043 247.295 71.7779L247.65 68.8179Z" fill="#EB996E"/>
<path d="M246.171 36.1357C245.875 36.5501 244.276 35.9581 242.204 35.7213C240.191 35.4845 238.415 35.6621 238.238 35.1885C238.179 34.9517 238.534 34.5965 239.303 34.3005C240.073 34.0045 241.198 33.8269 242.382 33.9453C243.625 34.1229 244.631 34.5373 245.283 35.0109C245.993 35.4845 246.289 35.9581 246.171 36.1357Z" fill="#263238"/>
<path d="M261.563 32.643C261.267 33.0574 260.083 32.7022 258.603 32.7614C257.182 32.7614 255.939 33.1758 255.643 32.7614C255.524 32.5838 255.702 32.1694 256.176 31.755C256.708 31.3406 257.537 30.9854 258.544 30.9854C259.55 30.9854 260.379 31.2814 260.912 31.6366C261.504 32.051 261.681 32.4654 261.563 32.643Z" fill="#263238"/>
<path d="M244.927 51.4073C245.697 50.8745 246.703 50.6969 247.65 50.8153C248.124 50.8745 248.597 51.1113 248.893 51.4665C249.308 51.9401 249.367 52.6505 249.308 53.3017C249.308 53.6569 249.249 54.0713 249.13 54.4265C249.012 54.7817 248.775 55.1369 248.42 55.2553C248.065 55.4329 247.65 55.3737 247.236 55.3145C246.585 55.1961 245.933 55.0185 245.401 54.6633C244.868 54.3081 244.453 53.7161 244.394 53.0649C244.335 52.4137 244.69 51.7033 245.282 51.4665" fill="#EB996E"/>
<path d="M249.604 55.1962C249.486 55.2554 249.249 54.841 248.834 54.3674C248.42 53.8346 247.769 53.1835 246.94 52.7099C246.111 52.2363 245.223 51.9994 244.513 51.9402C243.862 51.8218 243.388 51.8218 243.388 51.7034C243.388 51.585 243.802 51.3482 244.513 51.289C245.223 51.2298 246.348 51.3482 247.354 51.9402C248.361 52.5322 249.071 53.361 249.367 54.0714C249.722 54.7226 249.722 55.1962 249.604 55.1962Z" fill="#263238"/>
<path d="M219.648 67.2137C223.733 66.3849 226.93 62.8329 228.351 58.9257C229.772 54.9593 229.712 50.6377 229.298 46.4937C229.239 45.9609 229.18 45.3689 228.706 45.0137C228.055 44.5401 227.167 44.9545 226.516 45.3097C223.911 46.9081 221.424 48.6249 219.056 50.5193C216.866 52.2953 214.676 54.3081 213.847 57.0313C212.544 61.1753 215.268 66.0889 219.471 67.2137" fill="#263238"/>
<path d="M314.191 66.2073L294.773 35.0089L289.386 24.0569C289.386 24.0569 287.669 21.8073 285.893 19.8537C282.993 16.6569 280.092 19.1433 280.092 19.1433C280.092 19.1433 279.677 17.9001 278.138 17.9593C276.303 17.9593 275.474 19.3209 275.474 19.3209C275.474 19.3209 274.705 18.4329 272.455 18.3145C271.981 18.3145 271.508 18.4921 271.034 18.7881C270.324 18.1369 268.962 17.2489 267.719 17.7225C266.713 18.0777 260.674 22.6953 259.194 25.0041C258.484 26.1289 259.845 27.6089 261.68 26.9577C262.509 26.6617 263.279 26.4249 263.871 26.0697C264.877 25.4777 265.351 24.8857 265.351 24.8857C265.351 24.8857 263.812 27.5497 265.351 28.0233C266.002 28.2009 267.304 28.0825 268.192 27.3129C268.784 26.8393 269.436 26.1881 270.087 25.5961C270.087 25.6553 270.028 25.6553 270.028 25.7145C269.199 26.9577 271.389 28.7929 272.455 28.0233C272.988 27.6681 273.461 27.2537 273.876 26.8985C276.362 28.6745 272.928 30.9833 271.448 30.8649C269.199 30.6873 266.594 30.6873 264.759 30.8649C263.516 30.9833 262.391 31.2793 261.68 31.9897C260.852 32.8185 261.74 34.5945 262.864 34.7721C264.996 35.1273 267.719 35.6009 270.501 36.3113C273.816 37.1401 282.519 39.9817 282.519 39.9817L283.348 40.6921L295.128 69.4632L274.941 73.7257L270.442 99.3L306.909 89.4137C315.257 84.9737 319.164 74.0217 314.191 66.2073Z" fill="#FFBE9D"/>
<path d="M282.637 39.8041C282.637 39.8041 282.46 39.8041 282.164 39.6857C281.809 39.5673 281.394 39.4489 280.861 39.3305C279.677 38.9753 278.079 38.5017 276.066 37.9097C275.06 37.6137 273.935 37.2585 272.751 36.9033C271.567 36.5481 270.265 36.1337 268.962 35.8377C267.601 35.4825 266.18 35.1273 264.7 34.9497C263.989 34.8313 263.161 34.8905 262.391 34.5353C262.213 34.4169 262.036 34.2985 261.858 34.1209C261.799 34.0025 261.74 33.9433 261.681 33.8249L261.621 33.5289C261.562 33.1145 261.562 32.7001 261.681 32.2857C261.799 31.8713 262.154 31.5161 262.509 31.3385C262.865 31.1609 263.279 31.0425 263.634 30.8649C264.404 30.6281 265.233 30.5689 266.002 30.5689C267.541 30.5689 268.962 30.8057 270.383 30.7465C271.093 30.7465 271.745 30.6873 272.396 30.5689C273.047 30.4505 273.639 30.2729 274.231 30.1545C275.415 29.8585 276.599 29.6217 277.665 29.7401C278.73 29.8585 279.677 30.1545 280.447 30.4505C281.217 30.7465 281.868 31.1017 282.401 31.3977C282.933 31.6937 283.289 31.9305 283.585 32.1081C283.821 32.2857 283.999 32.3449 283.999 32.4041C283.999 32.4633 283.821 32.3449 283.585 32.1673C283.289 31.9897 282.874 31.8121 282.401 31.5161C281.868 31.2201 281.217 30.9241 280.447 30.6281C279.677 30.3321 278.73 30.0361 277.724 29.9769C276.658 29.8585 275.533 30.0953 274.349 30.4505C273.757 30.6281 273.106 30.8057 272.455 30.9241C271.804 31.0425 271.093 31.1017 270.383 31.1609C268.962 31.2201 267.482 31.0425 266.002 30.9833C265.233 30.9833 264.463 31.0425 263.753 31.2793C263.042 31.5161 262.213 31.7529 261.977 32.5225C261.858 32.8777 261.858 33.2921 261.917 33.6473L261.977 33.9433C261.977 34.0025 262.036 34.0617 262.095 34.1209C262.213 34.2393 262.332 34.3577 262.509 34.4169C263.161 34.7721 263.989 34.7129 264.759 34.8313C266.298 35.0089 267.719 35.3641 269.081 35.7193C270.442 36.0745 271.685 36.4889 272.869 36.8441C274.053 37.1993 275.178 37.5545 276.185 37.9097C278.197 38.5609 279.796 39.0345 280.98 39.4489C281.513 39.6265 281.927 39.7449 282.282 39.8633C282.519 39.7449 282.637 39.8041 282.637 39.8041Z" fill="#EB996E"/>
<path d="M267.719 17.7225C267.778 17.7817 266.831 18.3146 265.41 19.3802C264.7 19.913 263.93 20.5641 263.101 21.3929C262.273 22.2217 261.385 23.169 260.378 23.9978C259.905 24.4122 259.372 24.8858 259.313 25.4778C259.253 25.7738 259.253 26.0697 259.431 26.2473C259.549 26.4841 259.786 26.6617 260.023 26.7209C260.556 26.8985 261.089 26.8394 261.562 26.7802C262.036 26.6618 262.509 26.5434 262.924 26.3658C264.522 25.7146 265.292 24.8266 265.351 24.8858C265.351 24.8858 265.173 25.1226 264.818 25.4186C264.463 25.7146 263.871 26.1881 263.042 26.5433C262.628 26.7209 262.154 26.8986 261.621 26.9578C261.089 27.0762 260.497 27.1354 259.905 26.9578C259.609 26.8394 259.313 26.6618 259.135 26.3658C258.957 26.0698 258.898 25.7145 259.017 25.3593C259.135 24.6489 259.727 24.1754 260.201 23.7018C261.207 22.8138 262.095 21.9257 262.924 21.0969C263.753 20.2681 264.581 19.617 265.292 19.1434C266.002 18.6106 266.594 18.2553 267.068 18.0185C267.423 17.8409 267.66 17.6633 267.719 17.7225Z" fill="#EB996E"/>
<path d="M275.119 20.1494C275.119 20.1494 274.882 20.4454 274.408 20.9782C273.935 21.511 273.284 22.2214 272.455 23.1094C271.626 23.9974 270.62 25.063 269.554 26.247C269.021 26.839 268.311 27.431 267.482 27.7862C267.068 27.9638 266.594 28.1414 266.12 28.1414C265.647 28.1414 265.114 27.9638 264.759 27.6086C264.581 27.431 264.463 27.135 264.463 26.8982C264.463 26.6614 264.463 26.3654 264.522 26.1286C264.64 25.655 264.877 25.2406 265.173 24.8262C266.239 23.7014 267.186 22.695 268.074 21.6886C268.962 20.7414 269.791 19.9718 270.501 19.3206C270.856 19.0246 271.152 18.6694 271.508 18.4918C271.863 18.3142 272.218 18.3142 272.455 18.255C272.988 18.1958 273.284 18.255 273.284 18.3142C273.284 18.3142 272.988 18.3142 272.514 18.3734C272.277 18.4326 271.922 18.4326 271.626 18.6102C271.33 18.7878 271.034 19.0838 270.679 19.439C270.028 20.0902 269.14 20.919 268.311 21.8662C267.482 22.8134 266.476 23.879 265.469 25.0038C265.232 25.359 264.996 25.7734 264.877 26.1878C264.818 26.4246 264.818 26.6022 264.818 26.839C264.877 27.0758 264.936 27.2534 265.055 27.431C265.351 27.727 265.765 27.8454 266.18 27.9046C266.594 27.9046 267.008 27.7862 267.423 27.6086C268.192 27.2534 268.844 26.7206 269.376 26.1286C270.501 24.9446 271.508 23.9382 272.336 23.0502C273.165 22.2214 273.816 21.511 274.349 20.9782C274.586 20.7414 274.764 20.5638 274.882 20.4454C275 20.2086 275.119 20.1494 275.119 20.1494Z" fill="#EB996E"/>
<path d="M284.177 22.9909C284.236 22.9909 284.177 23.1685 283.94 23.3461C283.762 23.5237 283.348 23.6421 282.934 23.5829C282.519 23.5237 282.223 23.2277 282.105 23.0501C281.986 22.8133 281.986 22.6357 281.986 22.6357C282.046 22.6357 282.105 22.7541 282.282 22.9317C282.46 23.1093 282.697 23.2869 282.993 23.3461C283.289 23.4053 283.585 23.3461 283.822 23.2277C283.999 23.1093 284.118 22.9909 284.177 22.9909Z" fill="#EB996E"/>
<path d="M284.887 25.7143C284.828 25.7735 284.354 25.2999 283.999 24.6487C283.584 23.9975 283.407 23.4055 283.525 23.3463C283.584 23.2871 283.88 23.8199 284.295 24.4711C284.65 25.1815 284.946 25.6551 284.887 25.7143Z" fill="#EB996E"/>
<path d="M286.19 36.3113C286.13 36.3113 285.893 35.8969 285.657 35.0681C285.361 34.2985 285.183 33.1145 285.183 31.8121C285.183 30.5097 285.479 29.3849 285.775 28.6153C286.071 27.8457 286.367 27.3721 286.367 27.3721C286.486 27.4313 285.538 29.2665 285.538 31.8121C285.42 34.3577 286.308 36.3113 286.19 36.3113Z" fill="#EB996E"/>
<path d="M302.114 77.3367C302.055 77.3367 301.996 76.6855 301.7 75.7383C301.522 75.2647 301.285 74.6727 300.989 74.1399C300.634 73.5479 300.279 72.9559 299.746 72.3639C299.213 71.7719 298.681 71.2983 298.148 70.8839C297.615 70.4695 297.082 70.1735 296.609 69.9959C295.721 69.5815 295.069 69.4039 295.069 69.3447C295.069 69.3447 295.247 69.3447 295.543 69.4039C295.839 69.4631 296.253 69.5815 296.727 69.7591C297.201 69.9367 297.733 70.2327 298.325 70.6471C298.858 71.0615 299.45 71.5351 299.983 72.1271C300.516 72.7191 300.93 73.3703 301.226 73.9623C301.522 74.5543 301.759 75.1463 301.877 75.6791C301.996 76.1527 302.055 76.5671 302.114 76.8631C302.173 77.1591 302.173 77.3367 302.114 77.3367Z" fill="#EB996E"/>
<path d="M234.389 134.347C231.784 133.814 229.476 134.998 229.476 134.998C226.812 133.814 223.615 135.827 223.615 135.827C222.668 135.353 216.925 139.142 216.925 139.142L209.762 142.517L171.578 114.16L182.412 102.912L167.256 87.1055L149.496 105.398C147.306 107.707 146.181 110.785 145.944 113.982C145.471 120.909 149.437 127.421 155.653 130.558L200.645 153.646C200.645 153.646 205.44 153.469 210.887 152.048C214.794 151.041 221.424 148.081 221.424 148.081C221.424 148.081 221.424 148.259 222.608 150.568C224.74 154.712 227.877 150.213 227.877 150.213C227.877 150.213 228.528 151.693 229.12 152.225C231.844 154.83 233.679 151.337 233.679 151.337C233.679 151.337 234.508 152.758 236.935 151.693C239.362 150.627 236.58 143.345 236.58 143.345C236.58 143.345 237.408 144.944 238.948 142.931C240.428 141.037 236.994 134.88 234.389 134.347Z" fill="#FFBE9D"/>
<path d="M229.002 135.354C229.002 135.354 229.18 135.236 229.476 135.176C229.831 135.117 230.304 135.058 230.896 135.236C231.488 135.413 232.14 135.709 232.791 136.242C233.087 136.479 233.442 136.775 233.738 137.071C234.034 137.426 234.271 137.84 234.508 138.255C235.336 139.912 235.928 141.511 236.284 142.636C236.461 143.228 236.58 143.701 236.639 143.997C236.698 144.352 236.757 144.53 236.698 144.53C236.639 144.53 236.461 143.82 236.047 142.695C235.632 141.57 235.04 140.031 234.212 138.373C234.034 137.959 233.797 137.604 233.501 137.248C233.205 136.952 232.909 136.656 232.613 136.42C232.021 135.946 231.37 135.591 230.837 135.413C229.772 135.058 229.002 135.413 229.002 135.354Z" fill="#EB996E"/>
<path d="M233.62 151.397C233.62 151.397 233.501 151.16 233.265 150.746C233.028 150.272 232.732 149.68 232.436 148.91C231.725 147.371 230.719 145.299 229.713 142.872C229.239 141.688 228.765 140.504 228.173 139.616C227.581 138.728 226.753 138.136 225.983 137.781C225.213 137.426 224.562 137.366 224.089 137.426C223.615 137.485 223.378 137.603 223.378 137.603C223.378 137.603 223.437 137.544 223.556 137.485C223.674 137.426 223.852 137.366 224.089 137.307C224.562 137.189 225.273 137.248 226.101 137.544C226.871 137.84 227.759 138.491 228.469 139.438C229.121 140.386 229.594 141.51 230.068 142.694C231.074 145.062 232.021 147.194 232.673 148.733C233.028 149.502 233.265 150.154 233.442 150.568C233.561 151.16 233.62 151.397 233.62 151.397Z" fill="#EB996E"/>
<path d="M216.096 142.281C216.096 142.281 216.333 142.162 216.688 141.925C217.162 141.689 217.695 141.452 218.405 141.097C218.76 140.919 219.175 140.741 219.589 140.564C220.063 140.386 220.596 140.268 221.128 140.327C221.661 140.386 222.253 140.564 222.727 140.919C223.2 141.274 223.556 141.807 223.911 142.34C224.207 142.873 224.503 143.405 224.74 143.938C224.976 144.471 225.272 144.945 225.509 145.418C226.042 146.365 226.516 147.135 226.871 147.905C227.226 148.615 227.463 149.207 227.64 149.621C227.818 150.036 227.877 150.273 227.818 150.273C227.759 150.273 227.463 149.325 226.693 147.964C226.338 147.253 225.805 146.484 225.272 145.537C225.036 145.063 224.74 144.589 224.503 144.057C224.266 143.524 223.97 142.991 223.674 142.517C223.378 141.985 223.023 141.511 222.608 141.215C222.194 140.86 221.661 140.682 221.128 140.623C220.655 140.564 220.122 140.623 219.708 140.801C219.293 140.978 218.879 141.156 218.524 141.333C217.813 141.629 217.221 141.866 216.748 142.044C216.333 142.221 216.096 142.281 216.096 142.281Z" fill="#EB996E"/>
<path d="M216.925 139.142C216.925 139.142 216.748 139.261 216.393 139.498C216.037 139.675 215.564 139.971 214.913 140.267C213.669 140.918 211.953 141.806 209.999 142.813C208.045 143.76 206.329 144.648 205.026 145.24C204.375 145.536 203.842 145.773 203.487 145.95C203.132 146.128 202.895 146.187 202.895 146.187C202.895 146.187 203.073 146.069 203.428 145.832C203.783 145.654 204.257 145.358 204.908 145.062C206.151 144.411 207.927 143.523 209.821 142.517C211.775 141.57 213.492 140.682 214.794 140.09C215.445 139.794 215.978 139.557 216.333 139.379C216.689 139.202 216.866 139.083 216.925 139.142Z" fill="#EB996E"/>
<path d="M172.052 114.16C172.052 114.279 170.039 113.687 167.553 114.042C165.066 114.338 163.231 115.344 163.172 115.226C163.172 115.167 163.586 114.93 164.356 114.575C165.125 114.219 166.25 113.864 167.493 113.746C168.737 113.568 169.921 113.687 170.749 113.805C171.578 113.983 172.052 114.16 172.052 114.16Z" fill="#EB996E"/>
<path d="M256.412 11.6256C246.94 11.5072 237.468 12.5136 228.292 14.5856C226.16 15.0592 223.911 15.7104 222.431 17.368C220.892 19.0848 220.655 21.5712 220.418 23.88C220.181 26.7216 219.944 29.504 219.708 32.2864C219.293 32.9968 218.82 33.648 218.346 34.2992C216.096 37.2 213.314 39.6272 211.242 42.7056C209.229 45.784 208.104 49.8096 209.762 53.0656C210.768 55.0192 212.604 56.44 213.965 58.216C216.274 61.176 216.984 65.024 218.346 68.5168C219.708 72.0096 222.076 75.6208 225.805 76.3312C227.581 76.6864 229.416 76.272 231.133 76.568C233.797 76.9824 235.988 78.6992 238.119 80.3568C240.25 82.0144 242.5 83.672 245.164 83.968C247.828 84.2048 250.847 82.4288 250.906 79.7648C248.952 80.8896 246.348 80.8304 244.453 79.5872C242.914 78.5808 241.908 76.9232 240.546 75.6208C237.29 72.424 232.021 71.4176 229.712 67.5104C227.936 64.3728 228.647 60.4656 229.416 56.9728C230.127 53.9536 230.837 50.6384 229.949 47.6784C230.008 47.2048 230.068 46.7312 230.068 46.2576C230.068 43.12 228.884 39.8048 230.304 37.0224C232.199 33.352 237.764 32.9376 239.717 29.2672C240.842 27.136 240.428 24.472 241.671 22.4C242.855 20.4464 245.164 19.5584 247.354 19.0848C249.544 18.6112 251.853 18.3744 253.807 17.2496C255.879 16.1248 257.3 13.6976 256.412 11.6256Z" fill="#263238"/>
<path d="M263.575 75.1469C263.575 75.1469 263.575 75.2061 263.456 75.2653C263.397 75.3837 263.279 75.5021 263.16 75.6797C262.924 76.0349 262.45 76.5085 261.799 77.0413C261.148 77.5741 260.26 78.1069 259.076 78.4621C257.951 78.8765 256.53 79.1133 255.05 78.9357C253.57 78.8173 251.912 78.2253 250.492 77.1005C249.071 76.0349 247.828 74.5549 246.229 73.4301C245.46 72.8973 244.512 72.4237 243.506 72.3053C242.5 72.1869 241.493 72.4237 240.487 72.8381C239.48 73.2525 238.474 73.7261 237.349 73.9037C236.224 74.0813 235.04 73.8445 233.975 73.3117C232.909 72.7789 232.021 72.1277 231.133 71.4173C230.245 70.7069 229.416 70.0557 228.647 69.2269C227.877 68.4573 227.226 67.5693 226.871 66.5629C226.456 65.5565 226.456 64.4909 226.693 63.4845C226.871 62.4781 227.226 61.5901 227.581 60.7021C227.936 59.8141 228.232 58.9853 228.469 58.1565C229.002 56.4989 229.357 54.9005 229.535 53.4205C230.008 50.4605 230.008 48.0333 229.89 46.3757C229.831 45.5469 229.772 44.8957 229.772 44.4813C229.772 44.3037 229.712 44.1261 229.712 44.0077C229.712 43.8893 229.712 43.8301 229.712 43.8301C229.712 43.8301 229.712 43.8893 229.772 44.0077C229.772 44.1261 229.831 44.3037 229.831 44.4813C229.89 44.8957 229.949 45.5469 230.008 46.3757C230.127 48.0333 230.186 50.5197 229.712 53.4797C229.476 54.9597 229.18 56.5581 228.647 58.2749C228.41 59.1037 228.114 59.9917 227.759 60.8797C227.404 61.7677 227.048 62.6557 226.871 63.6029C226.693 64.5501 226.693 65.5565 227.048 66.5037C227.404 67.4509 228.055 68.3389 228.765 69.0493C229.476 69.8189 230.364 70.5293 231.252 71.1805C232.14 71.8317 233.028 72.5421 234.034 73.0157C235.04 73.4893 236.165 73.7853 237.231 73.6077C238.296 73.4301 239.303 72.9565 240.309 72.5421C241.316 72.1277 242.381 71.8317 243.447 72.0093C244.512 72.1277 245.46 72.6013 246.288 73.1933C247.887 74.3773 249.13 75.7981 250.551 76.8637C251.912 77.9885 253.452 78.5805 254.932 78.6989C256.412 78.8765 257.773 78.6397 258.898 78.2845C260.023 77.9293 260.911 77.3965 261.562 76.9229C263.101 75.9757 263.575 75.0877 263.575 75.1469Z" fill="#263238"/>
<path d="M204.434 56.3219C204.434 56.3219 204.256 56.0852 203.96 55.6707C203.664 55.1972 203.309 54.4867 203.132 53.5395C202.895 52.5331 202.895 51.2899 203.191 49.8691C203.487 48.4483 204.138 46.9091 205.263 45.4883C206.328 44.0675 207.808 42.706 209.525 41.4627C211.242 40.2196 213.136 39.0355 215.09 37.6739C216.984 36.3123 218.938 34.714 220.359 32.5828C221.069 31.5172 221.602 30.3332 221.957 29.0308C222.312 27.7875 222.608 26.4259 222.904 25.1235C223.2 23.7619 223.556 22.4595 224.088 21.2163C224.621 19.9731 225.391 18.8483 226.397 18.0195C227.404 17.1907 228.588 16.5395 229.772 16.1843C230.956 15.7699 232.199 15.5923 233.383 15.4739C235.751 15.2963 238.06 15.5331 240.132 15.7107C242.204 15.8883 244.216 16.0067 245.992 15.7699C247.768 15.5923 249.308 15.0595 250.551 14.4083C251.794 13.7571 252.741 12.9283 253.333 12.1587C253.984 11.3891 254.28 10.6787 254.458 10.2051C254.636 9.73155 254.695 9.43555 254.695 9.43555C254.695 9.43555 254.636 9.73155 254.517 10.2051C254.34 10.7379 254.044 11.4483 253.392 12.2179C252.8 13.0467 251.853 13.8755 250.551 14.5267C249.308 15.2371 247.709 15.7699 245.933 15.9475C244.157 16.1843 242.144 16.0659 240.072 15.8883C237.941 15.7699 235.692 15.4739 233.383 15.7107C232.199 15.8291 231.015 16.0067 229.831 16.4211C228.647 16.7763 227.522 17.3683 226.575 18.1971C225.628 19.0259 224.858 20.0916 224.325 21.3348C223.792 22.5188 223.437 23.8212 223.141 25.1828C222.845 26.4852 222.549 27.8467 222.194 29.1491C221.779 30.4515 221.306 31.6947 220.536 32.7603C219.116 34.9507 217.103 36.5491 215.208 37.9699C213.255 39.3315 211.36 40.5156 209.644 41.7588C207.927 43.0019 206.506 44.3043 205.381 45.7251C204.256 47.146 203.664 48.6259 203.309 50.0467C203.013 51.4084 203.013 52.6515 203.191 53.6579C203.664 55.4339 204.493 56.3219 204.434 56.3219Z" fill="#455A64"/>
<path d="M206.21 59.4006C206.21 59.4006 205.5 58.8678 204.375 57.6838C203.842 57.0918 203.191 56.263 202.776 55.1974C202.599 54.6646 202.421 54.0134 202.48 53.3622C202.54 52.711 202.836 52.0006 203.25 51.4086C204.197 50.2246 205.796 49.5734 207.453 49.2774C208.282 49.0998 209.17 48.9814 210.058 48.7446C210.946 48.5078 211.834 48.2118 212.604 47.679C213.373 47.1462 213.965 46.3766 214.439 45.4886C214.912 44.6006 215.208 43.6534 215.564 42.647C215.919 41.6406 216.274 40.6342 216.748 39.687C217.221 38.7398 217.991 37.8518 218.997 37.2006C219.944 36.6086 221.01 36.2534 222.076 36.0166C223.141 35.7206 224.148 35.543 225.154 35.1878C227.108 34.5958 228.706 33.2342 229.831 31.7542C231.015 30.2742 231.903 28.6758 232.732 27.1958C233.56 25.7158 234.448 24.3542 235.396 23.2294C236.343 22.1046 237.408 21.2758 238.415 20.743C239.421 20.2102 240.428 19.9734 241.256 19.9142C242.085 19.855 242.736 19.9734 243.151 20.0918C243.565 20.2102 243.743 20.3286 243.743 20.3286C243.743 20.3286 243.506 20.2694 243.092 20.151C242.677 20.0326 242.026 19.9734 241.256 20.0326C240.487 20.151 239.48 20.3878 238.474 20.9206C237.468 21.4534 236.461 22.2822 235.514 23.407C234.567 24.5318 233.738 25.8342 232.909 27.3142C232.08 28.7942 231.192 30.3926 230.008 31.9318C229.416 32.7014 228.706 33.4118 227.936 34.063C227.167 34.7142 226.22 35.1878 225.213 35.543C224.207 35.8982 223.141 36.135 222.135 36.3718C221.128 36.6678 220.063 36.9638 219.116 37.5558C218.168 38.1478 217.517 38.9766 216.984 39.9238C216.511 40.871 216.156 41.8774 215.8 42.8246C215.445 43.831 215.149 44.7782 214.616 45.6662C214.143 46.5542 213.492 47.383 212.663 47.9158C211.834 48.4486 210.946 48.8038 210.058 48.9814C209.17 49.2182 208.282 49.3366 207.453 49.5142C205.796 49.8694 204.256 50.4614 203.368 51.5862C202.954 52.119 202.658 52.7702 202.599 53.4214C202.54 54.0726 202.658 54.6646 202.836 55.1974C203.25 56.263 203.842 57.0918 204.375 57.6838C204.908 58.2758 205.322 58.7494 205.618 59.0454C205.736 59.1638 205.855 59.2822 205.973 59.4006C206.151 59.4006 206.21 59.4006 206.21 59.4006Z" fill="#455A64"/>
<path d="M279.085 21.1572C279.085 21.1572 278.967 21.3348 278.789 21.6308C278.553 21.9268 278.257 22.3412 277.842 22.8148C277.013 23.762 275.889 25.0644 274.527 26.426C273.876 27.0772 273.225 27.8468 272.337 28.0836C271.922 28.202 271.449 28.202 271.093 28.0836C270.738 27.906 270.442 27.61 270.265 27.3732C269.969 26.7812 270.028 26.1892 270.028 25.8932C270.087 25.538 270.146 25.3604 270.146 25.3604C270.146 25.3604 270.146 25.538 270.146 25.8932C270.146 26.2484 270.146 26.7812 270.442 27.2548C270.62 27.4916 270.857 27.7284 271.153 27.8468C271.449 27.9652 271.863 27.9652 272.218 27.8468C272.988 27.61 273.58 26.8996 274.29 26.2484C275.652 24.8868 276.836 23.5844 277.665 22.6964C278.493 21.7492 279.026 21.1572 279.085 21.1572Z" fill="#EB996E"/>
<path d="M283.585 21.216C283.585 21.216 283.466 21.3936 283.229 21.6896C282.993 21.9856 282.637 22.4 282.164 22.8736C281.69 23.4064 281.157 23.9392 280.565 24.5904C280.269 24.8864 279.973 25.2416 279.618 25.5968C279.263 25.952 278.908 26.3072 278.493 26.6032C278.079 26.8992 277.546 27.136 277.073 27.1952C276.54 27.2544 276.007 27.0176 275.711 26.6032C275.593 26.4256 275.474 26.1296 275.474 25.8928C275.474 25.656 275.593 25.4192 275.652 25.2416C275.889 24.8864 276.066 24.5904 276.303 24.3536C276.717 23.8208 277.013 23.4064 277.25 23.1104C277.487 22.8144 277.605 22.6368 277.605 22.696C277.605 22.696 277.546 22.8736 277.309 23.2288C277.132 23.5248 276.836 23.9984 276.421 24.5312C276.244 24.8272 276.007 25.1232 275.829 25.4192C275.652 25.7152 275.593 26.1296 275.829 26.4256C276.066 26.7216 276.481 26.8992 276.895 26.8992C277.309 26.84 277.783 26.6624 278.197 26.3664C278.612 26.0704 278.967 25.7152 279.263 25.36C279.618 25.0048 279.914 24.7088 280.21 24.3536C280.802 23.7616 281.335 23.1696 281.868 22.696C282.341 22.2224 282.697 21.8672 282.993 21.5712C283.289 21.2752 283.585 21.1568 283.585 21.216Z" fill="#EB996E"/>
</svg>
