<svg width="32" height="33" viewBox="0 0 32 33" fill="none" xmlns="http://www.w3.org/2000/svg">
<rect y="0.81543" width="32" height="32" rx="16" fill="#F7F8F9"/>
<path d="M20.2422 21.0585C20.5025 20.7981 20.5025 20.376 20.2422 20.1157L16.9428 16.8163L20.2431 13.516C20.5034 13.2557 20.5034 12.8335 20.2431 12.5732C19.9827 12.3128 19.5606 12.3128 19.3003 12.5732L16 15.8735L12.6997 12.5732C12.4394 12.3128 12.0173 12.3128 11.7569 12.5732C11.4966 12.8335 11.4966 13.2557 11.7569 13.516L15.0572 16.8163L11.7578 20.1157C11.4975 20.376 11.4975 20.7981 11.7578 21.0585C12.0182 21.3188 12.4403 21.3188 12.7006 21.0585L16 17.7591L19.2994 21.0585C19.5597 21.3188 19.9818 21.3188 20.2422 21.0585Z" fill="#191D23"/>
</svg>
