<svg width="33" height="32" viewBox="0 0 33 32" fill="none" xmlns="http://www.w3.org/2000/svg">
<path d="M27.8414 32.0006C26.6847 32.0006 25.5832 31.56 24.7846 30.7338C23.9584 29.9076 23.5178 28.8337 23.5178 27.677C23.5178 26.5204 23.9584 25.4464 24.7846 24.6203C25.6107 23.7941 26.6847 23.3535 27.8414 23.3535C28.998 23.3535 30.072 23.7941 30.8981 24.6203C32.578 26.3001 32.578 29.054 30.8981 30.7338C30.0995 31.56 28.998 32.0006 27.8414 32.0006Z" fill="#047857"/>
<path d="M4.32353 8.92245C3.16691 8.92245 2.06538 8.48184 1.26677 7.65568C0.440616 6.82953 0 5.75553 0 4.59892C0 3.44231 0.440616 2.36831 1.26677 1.54216C2.09292 0.716007 3.16691 0.275391 4.32353 0.275391C5.48014 0.275391 6.55414 0.716007 7.38029 1.54216C8.20644 2.36831 8.64705 3.44231 8.64705 4.59892C8.64705 5.75553 8.20644 6.85707 7.38029 7.65568C6.58168 8.4543 5.48014 8.92245 4.32353 8.92245Z" fill="#047857"/>
<path d="M27.6486 8.78476C26.4919 8.78476 25.3904 8.34414 24.5918 7.51799C22.9119 5.83815 22.9119 3.0843 24.5918 1.40446C25.4179 0.578311 26.4919 0.137695 27.6486 0.137695C28.8052 0.137695 29.8792 0.578311 30.7053 1.40446C32.3852 3.0843 32.3852 5.83815 30.7053 7.51799C29.9067 8.34414 28.8052 8.78476 27.6486 8.78476Z" fill="#047857"/>
<path d="M4.43376 32.0009C3.27715 32.0009 2.17561 31.5603 1.377 30.7341C0.550845 29.908 0.110229 28.834 0.110229 27.6773C0.110229 26.5207 0.550845 25.4467 1.377 24.6206C1.54223 24.4554 1.735 24.2901 1.98284 24.1249C2.06546 24.0698 2.12053 24.0423 2.20315 23.9872C2.36838 23.9046 2.53361 23.822 2.6713 23.7394C2.75392 23.7118 2.83653 23.6567 2.91915 23.6292C3.08438 23.5741 3.24961 23.5191 3.44238 23.464C3.46991 23.464 3.52499 23.4364 3.55253 23.4364C3.58007 23.4364 3.60761 23.4364 3.60761 23.4089L4.57145 23.3538C4.68161 23.3538 4.8193 23.3814 4.95699 23.3814H5.01206C5.0396 23.3814 5.09468 23.3814 5.12222 23.3814H5.14976H5.20483H5.23237C5.31499 23.3814 5.37006 23.3814 5.45268 23.3814C7.10498 23.3814 8.75729 22.6654 9.94144 21.4537C11.1256 20.2144 11.7865 18.5621 11.759 16.9098V16.8548V16.7997C11.759 16.7446 11.759 16.7171 11.7314 16.662C11.7314 16.6069 11.7314 16.5518 11.7039 16.4968V16.3866C11.7039 16.304 11.6764 16.2214 11.6764 16.1388L11.759 15.1749C11.759 15.1474 11.759 15.1198 11.7865 15.0923L11.814 15.0372C11.8691 14.8445 11.8967 14.6792 11.9793 14.4865C12.0068 14.3763 12.0619 14.3212 12.0894 14.2386C12.172 14.0734 12.2547 13.9081 12.3373 13.7705C12.3648 13.7154 12.4199 13.6328 12.475 13.5777C12.6402 13.3298 12.8054 13.1371 12.9707 12.9718C13.7968 12.1457 14.8708 11.7051 16.0274 11.7051C17.184 11.7051 18.2856 12.1457 19.0842 12.9718C20.764 14.6517 20.764 17.4055 19.0842 19.0854C18.9189 19.2506 18.7262 19.4158 18.4783 19.5811C18.3957 19.6361 18.3406 19.6637 18.258 19.7188C18.0928 19.8014 17.9551 19.884 17.7899 19.9666C17.7073 19.9941 17.6246 20.0492 17.542 20.0768C17.3768 20.1318 17.2116 20.1869 17.0188 20.242L16.9086 20.2695C16.8811 20.2695 16.8536 20.2971 16.826 20.2971L15.8622 20.3797C15.752 20.3797 15.6419 20.3521 15.5042 20.3521H15.4216C15.394 20.3521 15.339 20.3521 15.3114 20.3521H15.2839H15.2288H15.2013C15.1187 20.3521 15.0636 20.3521 14.981 20.3521C13.3287 20.3521 11.6764 21.0681 10.4922 22.2798C9.30806 23.5191 8.64713 25.1714 8.67467 26.8237V26.8787V26.9338C8.67467 26.9889 8.67467 27.0164 8.70221 27.0715C8.70221 27.1266 8.70221 27.1817 8.72975 27.2367C8.72975 27.2643 8.72975 27.3194 8.75729 27.3744C8.75729 27.4295 8.78482 27.5121 8.78482 27.5672V27.5947L8.70221 28.531C8.70221 28.5586 8.67467 28.6687 8.64713 28.6963C8.59205 28.889 8.53698 29.0818 8.4819 29.2195C8.45436 29.3021 8.42682 29.3847 8.37175 29.4673C8.28913 29.6326 8.20652 29.7978 8.1239 29.963C8.09636 30.0181 8.04129 30.1007 7.98621 30.1833C7.82098 30.4036 7.65575 30.624 7.49052 30.7892C6.69191 31.5603 5.59037 32.0009 4.43376 32.0009Z" fill="#047857"/>
<path d="M16.1376 31.9997C14.981 31.9997 13.8795 31.5591 13.0809 30.7329C12.2547 29.9068 11.8141 28.8328 11.8141 27.6762C11.8141 26.5196 12.2547 25.4456 13.0809 24.6194C13.2461 24.4542 13.4389 24.289 13.6867 24.1237C13.7418 24.0686 13.8244 24.0411 13.8795 23.986C14.0447 23.9034 14.1824 23.8208 14.3476 23.7382C14.4302 23.7106 14.5129 23.6556 14.5955 23.628C14.7607 23.573 14.9259 23.5179 15.1187 23.4628L15.2839 23.4077L16.2753 23.3251C16.3855 23.3251 16.5232 23.3526 16.6333 23.3526H16.7159C16.771 23.3526 16.7985 23.3526 16.8536 23.3526C16.8812 23.3526 16.8812 23.3526 16.9087 23.3526H16.9362H16.9638C17.0464 23.3526 17.1015 23.3526 17.1841 23.3526C18.8364 23.3526 20.4887 22.6367 21.6728 21.425C22.857 20.1857 23.5179 18.5334 23.4904 16.8811V16.6884L23.4628 16.6608V16.6333C23.4628 16.5782 23.4628 16.5507 23.4628 16.4956L23.4353 16.3579C23.4353 16.2753 23.4078 16.1927 23.4078 16.1376L23.4628 15.2013C23.4628 15.1737 23.4904 15.0636 23.5179 15.0361C23.573 14.8157 23.6281 14.6505 23.6831 14.5128C23.7107 14.4302 23.7382 14.3476 23.7933 14.265C23.8759 14.1273 23.931 13.9621 24.0411 13.7968L24.0687 13.7693C24.0962 13.7142 24.1237 13.6591 24.1788 13.6041C24.3441 13.3562 24.5093 13.1634 24.6745 12.9982C25.5007 12.1721 26.5747 11.7314 27.7313 11.7314C28.8879 11.7314 29.9619 12.1721 30.788 12.9982C32.4679 14.6781 32.4679 17.4319 30.788 19.1117C30.6228 19.277 30.43 19.4422 30.1822 19.6074C30.1271 19.635 30.0996 19.6625 30.0445 19.69L29.9619 19.7451C29.8242 19.8277 29.659 19.9103 29.4937 19.993C29.4111 20.0205 29.3285 20.0756 29.2459 20.1031C29.0807 20.1582 28.9154 20.2133 28.7227 20.2683C28.6676 20.2683 28.64 20.2959 28.6125 20.2959C28.585 20.2959 28.5574 20.2959 28.5574 20.3234L27.5936 20.3785C27.4559 20.3785 27.2907 20.351 27.153 20.3234C27.0979 20.3234 27.0704 20.3234 27.0153 20.3234C26.9877 20.3234 26.9877 20.3234 26.9602 20.3234H26.8776C26.795 20.3234 26.7399 20.3234 26.6573 20.3234C25.005 20.3234 23.3527 21.0394 22.1685 22.2511C20.9844 23.4903 20.3235 25.1426 20.3785 26.7949V26.85V26.9051C20.3785 26.9602 20.3785 27.0153 20.4061 27.0428C20.4061 27.0979 20.4061 27.1529 20.4061 27.1805C20.4061 27.208 20.4061 27.2631 20.4336 27.3182C20.4336 27.4008 20.4611 27.4559 20.4611 27.5385L20.3785 28.5023C20.3785 28.5299 20.3234 28.64 20.3234 28.64C20.2684 28.8328 20.2133 29.0256 20.1582 29.1908C20.1307 29.2734 20.1031 29.356 20.0481 29.4111V29.4386C19.9654 29.6039 19.8828 29.7416 19.8002 29.9068C19.7451 29.9894 19.7176 30.0445 19.6625 30.1271C19.4973 30.3749 19.3321 30.5677 19.1668 30.7329C18.3682 31.5591 17.2942 31.9997 16.1376 31.9997Z" fill="#047857"/>
<path d="M4.43376 20.3233C3.27715 20.3233 2.17561 19.8827 1.377 19.0566C0.550845 18.2304 0.110229 17.1564 0.110229 15.9998C0.110229 14.8432 0.550845 13.7692 1.377 12.943C1.54223 12.7778 1.735 12.6126 1.98284 12.4474C2.03792 12.3923 2.12053 12.3647 2.20315 12.3097C2.34084 12.227 2.50607 12.1444 2.6713 12.0618C2.75392 12.0343 2.83653 11.9792 2.91915 11.9517C3.08438 11.8966 3.24961 11.8415 3.44238 11.814L3.55253 11.7864C3.58007 11.7864 3.58007 11.7864 3.60761 11.7589L4.59899 11.6763C4.73668 11.6763 4.87437 11.7038 5.01206 11.7314H5.0396C5.09468 11.7314 5.12222 11.7314 5.1773 11.7314C5.20483 11.7314 5.20483 11.7314 5.23237 11.7314H5.28745H5.31499C5.3976 11.7314 5.45268 11.7314 5.5353 11.7314C7.1876 11.7314 8.8399 11.0154 10.0241 9.80367C11.2082 8.56444 11.8691 6.91214 11.814 5.25983V5.20476V5.14968C11.814 5.09461 11.814 5.03953 11.7865 4.98445C11.7865 4.92937 11.7865 4.90184 11.7865 4.84676L11.759 4.70907C11.759 4.62645 11.7314 4.54384 11.7314 4.46122L11.7865 3.55246V3.52492V3.49738C11.7865 3.46984 11.814 3.35969 11.814 3.35969C11.8691 3.13938 11.9242 2.94661 11.9793 2.80892C12.0068 2.7263 12.0619 2.64369 12.0894 2.56108C12.172 2.39585 12.2547 2.25815 12.3373 2.09292L12.3648 2.06538C12.3924 2.0103 12.4474 1.92769 12.475 1.87262C12.6402 1.62477 12.8054 1.432 12.9707 1.26677C13.7968 0.440616 14.8708 0 16.0274 0C17.184 0 18.2856 0.440616 19.0842 1.26677C20.764 2.94661 20.764 5.70045 19.0842 7.38029C18.9189 7.54552 18.7262 7.71075 18.4783 7.87598C18.4233 7.93106 18.3682 7.9586 18.2856 7.98613L18.258 8.01367C18.0928 8.09629 17.9551 8.1789 17.7899 8.26152C17.7073 8.28906 17.6246 8.34414 17.542 8.37168C17.3768 8.42675 17.2116 8.48182 17.0188 8.5369C16.9913 8.5369 16.9362 8.56444 16.9086 8.56444C16.8811 8.56444 16.8536 8.56444 16.8536 8.59198L15.8897 8.64706C15.7796 8.64706 15.6419 8.61952 15.5042 8.61952H15.4491C15.394 8.61952 15.3665 8.61952 15.3114 8.61952C15.2839 8.61952 15.2839 8.61952 15.2563 8.61952H15.2288H15.1737C15.0911 8.61952 15.036 8.61952 14.9534 8.61952C13.3011 8.61952 11.6488 9.33552 10.4647 10.5472C9.28052 11.7864 8.61959 13.4387 8.64713 15.091V15.1461V15.2012C8.64713 15.2563 8.64713 15.3113 8.67467 15.3389C8.67467 15.394 8.67467 15.449 8.67467 15.5041C8.67467 15.5317 8.67467 15.5867 8.70221 15.6418C8.70221 15.7244 8.72975 15.7795 8.72975 15.8621L8.64713 16.7984C8.64713 16.826 8.64713 16.8535 8.6196 16.881L8.59206 16.9637C8.53698 17.184 8.4819 17.3492 8.42683 17.5144C8.39929 17.597 8.34421 17.6796 8.31667 17.7623C8.23406 17.9275 8.15144 18.0652 8.06883 18.2304C8.01375 18.313 7.98621 18.3681 7.93114 18.4507C7.7659 18.6986 7.60067 18.8913 7.43544 19.0566C6.69191 19.8552 5.59037 20.3233 4.43376 20.3233Z" fill="#047857"/>
</svg>
