<svg width="24" height="25" viewBox="0 0 24 25" fill="none" xmlns="http://www.w3.org/2000/svg">
<path d="M12 5.77734C13.5 4.27734 14.74 3.77734 16.5 3.77734C17.9587 3.77734 19.3576 4.35681 20.3891 5.38826C21.4205 6.41971 22 7.81865 22 9.27734C22 11.5673 20.49 13.3173 19 14.7773L12 21.7773L5 14.7773C3.5 13.3273 2 11.5773 2 9.27734C2 7.81865 2.57946 6.41971 3.61091 5.38826C4.64236 4.35681 6.04131 3.77734 7.5 3.77734C9.26 3.77734 10.5 4.27734 12 5.77734ZM12 5.77734L9.04 8.73734C8.83682 8.93905 8.67556 9.17897 8.56552 9.44327C8.45548 9.70758 8.39882 9.99105 8.39882 10.2773C8.39882 10.5636 8.45548 10.8471 8.56552 11.1114C8.67556 11.3757 8.83682 11.6156 9.04 11.8173C9.86 12.6373 11.17 12.6673 12.04 11.8873L14.11 9.98734C14.6289 9.51654 15.3044 9.25573 16.005 9.25573C16.7056 9.25573 17.3811 9.51654 17.9 9.98734L20.86 12.6473M18 15.7773L16 13.7773M15 18.7773L13 16.7773" stroke="#047857" stroke-width="2" stroke-linecap="round" stroke-linejoin="round"/>
</svg>
